<svg id="Capa_1" data-name="Capa 1" xmlns="http://www.w3.org/2000/svg" xmlns:xlink="http://www.w3.org/1999/xlink" viewBox="0 0 125 248"><defs><style>.cls-1{fill-rule:evenodd;fill:url(#Degradado_sin_nombre_4);}</style><linearGradient id="Degradado_sin_nombre_4" x1="0.18" y1="123.97" x2="124.75" y2="123.97" gradientUnits="userSpaceOnUse"><stop offset="0" stop-color="#ccc"/><stop offset="0.11" stop-color="#c3c3c3"/><stop offset="0.29" stop-color="#ababab"/><stop offset="0.51" stop-color="#838383"/><stop offset="0.53" stop-color="gray"/><stop offset="0.75" stop-color="#a2a2a2"/><stop offset="1" stop-color="#ccc"/></linearGradient></defs><title>logoMesa de trabajo 29</title><path class="cls-1" d="M.18,0V247.89H124.75V0ZM112,5.76l6.71,6.71.19.19-.19.19-2.73,2.73-9.81-9.81ZM87.18,212.81h0l4.4-4.4L96,212.81l-4.41,4.41h0Zm-29.53,3.06-2.84,2.84-2.95,2.95-2.6,2.6-4.44,4.44-3-3,4.44-4.44,2.6-2.6,2.95-2.95,2.84-2.84L57.56,210l2.77-2.77.08-.08v5.92Zm2.75,2.74v5.9l-2.85,2.85L55,230l-4.44,4.44-2.95-2.95L52,227l2.6-2.6,2.95-2.95,2.84-2.84ZM57.5,204.44l-2.77,2.77-2.87,2.87L49,212.92l-2.95,2.95-2.6,2.6L39,222.91,36.15,220l4.44-4.44,2.6-2.6L46.14,210,49,207.19l2.86-2.86,2.77-2.77,3-3,2.74-2.74v5.76ZM15.81,185.61h5.9l21.61,21.61-2.95,2.95Zm8.62,14.2L20,204.21l-2.6,2.6-2.95,2.95-2.84,2.84-2.86,2.86L6,218.24l-.11.11v-5.92l2.79-2.79,2.84-2.84,2.95-2.95,2.6-2.6,4.41-4.41Zm27.33-31.4,3,3-10,10h-6.1ZM33.12,181.5H27.39l18.73-18.73L49,165.63Zm21.45-15.91-2.77-2.77L48.94,160l-2.84-2.84-2.95-2.95-2.6-2.6-4.41-4.41L39,144.28l4.41,4.41,2.6,2.6L49,154.23l2.84,2.84,2.86,2.86,2.77,2.77,2.95,2.95v5.76l-2.78-2.78ZM50.9,122.07H45L23.43,100.5l2.95-2.95Zm-22-27.88,4.41-4.41,4.41,4.41L33.33,98.6Zm10.39,27.88H33.59L17.72,106.2l2.86-2.86Zm-5.7,4.5h5.73L20.57,145.34l-2.86-2.86Zm11.41,0h5.9L26.36,151.13l-2.95-2.95ZM33.33,150l4.4,4.4h0l-4.41,4.41h0l-4.4-4.4Zm27,9.9-2.77-2.77-2.86-2.86-2.84-2.84-2.95-2.95-2.6-2.6-4.41-4.41,3-3,4.41,4.41,2.6,2.6,2.95,2.95,2.84,2.84,2.79,2.79V160Zm.07-11.34-2.84-2.84-2.95-2.95-2.6-2.6-4.41-4.41,2.95-2.95,4.41,4.41,2.6,2.6,2.89,2.89v5.9Zm0-11.54-2.6-2.6L53.32,130l2.89-2.89,4.2,4.2v5.78Zm-7-18.4,4.44-4.44,2.6-2.6,0,0v5.78l-4.2,4.2Zm4.24-9.85-2.6,2.6-4.44,4.44-2.95-2.95L52,108.39l2.6-2.6,2.95-2.95L60.4,100h0v5.9Zm.09-11.49-2.84,2.84L51.86,103l-2.6,2.6-4.44,4.44-3-3,4.44-4.44,2.6-2.6,2.95-2.95,2.84-2.84,2.87-2.87,2.77-2.77.08-.08V94.5ZM57.5,85.83,54.72,88.6l-2.87,2.87L49,94.3l-2.95,2.95-2.6,2.6L39,104.3l-2.88-2.88L40.59,97l2.6-2.6,2.95-2.95L49,88.58l2.86-2.86,2.77-2.77,3-3,2.74-2.74v5.76ZM27.39,67h5.73L49,82.9l-2.86,2.86Zm30.28,7.26L50.42,67h5.84l4.15,4.15.19.19-.19.19Zm-2.83,2.83-3,3L38.67,67h6.1ZM38.67,62.89l13.1-13.1,3,3-10,10Zm-5.54,0H27.39L46.13,44.16,49,47Zm-11.41,0h-5.9L40.34,38.37l2.95,2.95Zm0,4.11L43.32,88.61l-2.95,2.95L15.81,67Zm2.72,14.73L20,86.13l-2.6,2.6-2.95,2.95-2.84,2.84L8.77,97.39,6,100.16l-.11.11V94.36l2.79-2.79,2.84-2.84,2.95-2.95,2.6-2.6,4.41-4.41ZM8.84,103l2.77-2.77,2.86-2.86,2.84-2.84,2.95-2.95,2.6-2.6,4.41-4.41,2.88,2.88-4.41,4.41-2.6,2.6L20.2,97.4l-2.84,2.84-2.86,2.86-2.77,2.77-3,3L5.89,111.7v-5.76ZM6.3,117.62l2.77-2.77,7.22,7.22H10.46L6.3,117.92l-.15-.15ZM11.9,112l3-3L28,122.07h-6.1ZM22,126.57h6.1L14.94,139.7l-3-3Zm-9.85,16.89,2.77,2.77,2.86,2.86,2.84,2.84,2.95,2.95,2.6,2.6,4.44,4.44-2.88,2.88-4.44-4.44-2.6-2.6-2.95-2.95L14.88,152,12,149.11l-2.77-2.77-2.91-2.91v-5.76l2.74,2.74Zm-5.71,5.71,2.77,2.77L12,154.8l2.84,2.84,2.95,2.95,2.6,2.6,4.44,4.44-3,3-4.44-4.44-2.6-2.6-2.95-2.95-2.84-2.84L6.33,155v-5.92Zm-.07,11.34,2.84,2.84,2.95,2.95,2.6,2.6,4.44,4.44-2.95,2.95-4.44-4.44-2.6-2.6L6.33,166.4v-5.9Zm34-3.53,2.95,2.95L21.71,181.5h-5.9ZM27.39,185.61h5.73L49,201.51l-2.86,2.86Zm11.27,0h6.1l10.09,10.09-3,3Zm19-11.33L60.41,177l.15.15-.15.15-4.15,4.15H50.42Zm1.38-50h0l3.44-3.44,3.44,3.44h0l-3.44,3.44Zm21-2.22h-5.9L98.6,97.55l2.95,2.95Zm24.41-18.73,2.86,2.86L91.38,122.07H85.65Zm-28.46,62.3,2.86-2.86L97.53,181.5H91.8ZM86.25,181.5h-6.1l-10-10,3-3ZM76,160l-2.86,2.86-2.77,2.77-3,3-2.78,2.78v-5.76l2.95-2.95,2.77-2.77,2.86-2.86,2.84-2.84,2.95-2.95,2.6-2.6,4.41-4.41,2.88,2.88-4.41,4.41-2.6,2.6-2.95,2.95Zm2.67-14.1-2.6,2.6-2.95,2.95-2.84,2.84L67.4,157.1l-2.77,2.77-.11.11v-5.92l2.79-2.79,2.84-2.84,2.95-2.95,2.6-2.6,4.41-4.41,3,3Zm-5.7-5.7-2.6,2.6-2.95,2.95-2.84,2.84,0,0v-5.77l-.06-.06.06-.06,2.89-2.89,2.6-2.6,4.41-4.41,2.95,2.95Zm3-51.56,2.84,2.84,2.95,2.95,2.6,2.6,4.44,4.44-2.88,2.88-4.44-4.44-2.6-2.6L75.9,94.3l-2.84-2.84L70.19,88.6l-2.77-2.77-2.91-2.91V77.16l2.74,2.74,3,3,2.77,2.77Zm0-5.68L91.8,67h5.73L78.76,85.77Zm-11.3,5.76,2.77,2.77,2.86,2.86,2.84,2.84L76,100.09l2.6,2.6,4.44,4.44-3,3-4.44-4.44-2.6-2.6-2.95-2.95-2.84-2.84L64.51,94.5V88.58ZM64.52,100l2.84,2.84,2.95,2.95,2.6,2.6,4.44,4.44-2.95,2.95L70,111.34l-2.6-2.6-2.85-2.85V100Zm0,11.54,2.6,2.6,4.44,4.44-2.89,2.89-4.2-4.2V111.5Zm7,18.44-4.41,4.41L64.6,137l-.08.08v-5.78l4.2-4.2Zm20-31.38h0L87.18,94.2h0l4.4-4.4L96,94.2Zm-7-7L81.6,88.61,103.21,67h5.9Zm18.66-28.67L81.64,41.31l2.95-2.95,24.52,24.52Zm-5.68,0H91.8L75.93,47l2.86-2.86Zm-11.27,0h-6.1l-10-10,3-3ZM80.16,67h6.1L73.12,80.13l-3-3ZM67.24,74.25l-2.73-2.73-.19-.19.19-.19L68.66,67H74.5ZM64.51,177l2.77-2.77,7.22,7.22H68.66l-4.15-4.15-.15-.15Zm15.64,8.56h6.1L73.12,198.74l-3-3Zm11.64,0h5.73L78.76,204.38l-2.86-2.86Zm11.41,0h5.9L84.55,210.17l-2.95-2.95Zm0-4.11L81.64,159.93,84.58,157l24.52,24.52Zm-16-27.12h0L91.59,150,96,154.38l-4.41,4.41Zm-13.1-27.93H80l21.61,21.61L98.64,151Zm11.58,0h5.73l15.91,15.91-2.86,2.86ZM110,109l3,3-10,10h-6.1Zm2.82-2.82-2.77-2.77-2.86-2.87-2.84-2.84-2.95-2.95-2.6-2.6-4.41-4.41,2.88-2.88,4.41,4.41,2.6,2.6,2.95,2.95,2.84,2.84,2.86,2.86,2.77,2.77,2.95,2.95V112l-2.78-2.78Zm5.71-5.71-2.77-2.77-2.86-2.86L110.08,92,107.13,89l-2.6-2.6L100.12,82l3-3,4.41,4.41,2.6,2.6L113,89l2.84,2.84,2.79,2.79v5.92Zm.07-11.34-2.84-2.84-2.95-2.95-2.6-2.6-4.41-4.41,2.95-2.95,4.41,4.41,2.6,2.6,2.89,2.89v5.9Zm0-11.54L116,75l-4.41-4.41,2.89-2.89,4.2,4.2v5.78Zm-7-17.66L116,55.46l2.6-2.6,0,0V58.6l-4.2,4.2Zm4.24-9.85-2.6,2.6-4.44,4.44-2.95-2.95,4.44-4.44,2.6-2.6,2.95-2.95,2.84-2.84h0v5.9Zm.09-11.49-2.84,2.84-2.95,2.95-2.6,2.6-4.44,4.44-3-3L104.57,44l2.6-2.6,2.95-2.95L113,35.61l2.87-2.87L118.59,30l.08-.08v5.92Zm-.15-11.43L113,29.91l-2.87,2.87-2.84,2.84-2.95,2.95-2.6,2.6-4.44,4.44-2.88-2.88,4.44-4.44,2.6-2.6,2.95-2.95,2.84-2.84L110.11,27l2.77-2.77,3-3,2.74-2.74v5.76Zm-24.17,13-4.4-4.4h0l4.41-4.41L96,35.76ZM84.37,33l-2.6,2.6L78.82,38.5,76,41.34l-2.86,2.86L70.34,47l-3,3-2.78,2.78V47l2.95-2.95,2.77-2.77,2.86-2.86,2.84-2.84,2.95-2.95,2.6-2.6,4.41-4.41,2.88,2.88Zm-5.71-5.71-2.6,2.6-2.95,2.95-2.84,2.84L67.4,38.49l-2.77,2.77-.11.11V35.46l2.79-2.79,2.84-2.84,2.95-2.95,2.6-2.6,4.41-4.41,3,3Zm-5.7-5.7-2.6,2.6L67.4,27.08l-2.84,2.84,0,0V24.19l-.06-.06.06-.06,2.89-2.89,2.6-2.6,4.41-4.41,2.95,2.95Zm-8.44,36.9,2.77-2.77,7.22,7.22H68.66l-4.15-4.15-.15-.15Zm0,5.77.73.73-.73.73L63.19,67l-.73.73L61.73,67l-1.32-1.32-.73-.73.73-.73,1.32-1.32.73-.73.73.73Zm-4.11-5.47-4.15,4.15H50.42l7.22-7.22,2.77,2.77.15.15Zm0-34.54V30l0,0-2.84-2.84-2.95-2.95L52,21.53l-4.41-4.41,2.95-2.95,4.41,4.41,2.6,2.6,2.89,2.89Zm-11.18.09,2.6,2.6,2.95,2.95,2.84,2.84,2.79,2.79v5.92l-.11-.11-2.77-2.77-2.86-2.86-2.84-2.84-2.95-2.95-2.6-2.6-4.41-4.41,3-3Zm-5.79,5.79,2.6,2.6L49,35.62l2.84,2.84,2.86,2.86,2.77,2.77L60.41,47v5.76L57.63,50l-3-3-2.77-2.77-2.86-2.87L46.1,38.5l-2.95-2.95L40.55,33l-4.41-4.41L39,25.66Zm-5.7,5.7h0l-4.41,4.41h0l-4.4-4.4,4.41-4.41ZM30.27,42.7l-2.88,2.88-4.44-4.44-2.6-2.6L17.4,35.59l-2.84-2.84L11.7,29.88,8.92,27.11,6,24.2V18.44l2.74,2.74,3,3L14.58,27l2.86,2.86,2.84,2.84,2.95,2.95,2.6,2.6ZM6.09,29.94l2.77,2.77,2.86,2.86,2.84,2.84,2.95,2.95,2.6,2.6,4.44,4.44-3,3-4.44-4.44-2.6-2.6-2.95-2.95L8.77,38.54,6,35.78V29.87ZM6,41.28l2.84,2.84,2.95,2.95,2.6,2.6,4.44,4.44-2.95,2.95-4.44-4.44L8.86,50,6,47.17v-5.9Zm0,11.54,2.6,2.6,4.44,4.44-2.89,2.89L6,58.57V52.78ZM13,70.27,8.57,74.67,6,77.27l-.08.08V71.57l4.2-4.2ZM7.09,65,5.83,66.14V63.91ZM5.89,83l2.89-2.89,2.6-2.6,4.41-4.41L18.73,76l-4.41,4.41L11.73,83,8.78,86,5.93,88.82l0,0V83.09L5.83,83Zm1.86,41.32-2.11,1.89V122.7Zm-1.41,6.43,4.15-4.15h5.84l-7.26,7.26L6.33,131.1l-.19-.19Zm0,46.58V172l0,0,2.6,2.6,4.44,4.44L10.53,182l-4.2-4.2ZM13,188.35l-4.41,4.41L6,195.36l-.08.08v-5.78l4.2-4.2Zm-4.2,9.81,2.6-2.6,4.41-4.41,2.95,2.95-4.41,4.41-2.6,2.6-2.95,2.95L5.93,206.9l0,0v-5.77l-.06-.06.06-.06ZM5.89,224.22V224l2.95-2.95,2.77-2.77,2.86-2.86,2.84-2.84,2.95-2.95,2.6-2.6,4.41-4.41,2.88,2.88-4.41,4.41-2.6,2.6-2.95,2.95-2.84,2.84-2.86,2.86L11.72,224l-3,3-2.78,2.78ZM33.33,208.4l4.41,4.41-4.41,4.41-4.41-4.41Zm24.35-15.53-7.26-7.26h5.84l4.15,4.15.19.19-.19.19Zm2.73-8.58-.73-.73.73-.73,1.32-1.32.73-.73.73.73,1.32,1.32.73.73-.73.73-1.32,1.32-.73.73-.73-.73Zm4.11,5.47,4.15-4.15H74.5l-7.26,7.26-2.73-2.73-.19-.19Zm0,34.54v-5.7h0l2.84,2.84,2.95,2.95,2.6,2.6,4.44,4.44-2.95,2.95L70,230l-2.6-2.6-2.85-2.85Zm11.14,0-2.6-2.6-2.95-2.95-2.84-2.84-2.75-2.75V207.2l.08.08L67.36,210l2.86,2.86,2.84,2.84L76,218.7l2.6,2.6,4.44,4.44-3,3Zm5.79-5.79-2.6-2.6-2.95-2.95-2.84-2.84-2.86-2.86-2.77-2.77-2.91-2.91v-5.76l2.74,2.74,3,3,2.77,2.77,2.86,2.86L78.78,210,81.73,213l2.6,2.6L88.77,220l-2.88,2.88Zm13-12.8,2.88-2.88,4.41,4.41,2.6,2.6,2.95,2.95,2.84,2.84,2.86,2.86,2.77,2.77,2.95,2.95v5.76l-2.78-2.78-3-3-2.77-2.77-2.86-2.87-2.84-2.84-2.95-2.95-2.6-2.6Zm24.15,12.72-2.77-2.77-2.86-2.86-2.84-2.84L107.13,207l-2.6-2.6L100.12,200l3-3,4.41,4.41,2.6,2.6,2.95,2.95,2.84,2.84,2.79,2.79v5.92Zm.07-11.34-2.84-2.84-2.95-2.95-2.6-2.6-4.41-4.41,2.95-2.95,4.41,4.41,2.6,2.6,2.89,2.89v5.9Zm0-11.54-2.6-2.6-4.41-4.41,2.89-2.89,4.2,4.2v5.78Zm-4.11-13.9-2.89-2.89,4.44-4.44,2.6-2.6,0,0v5.78Zm1.35-12.74-2.6,2.6-4.44,4.44L105.83,173l4.44-4.44,2.6-2.6,2.95-2.95,2.84-2.84h0V166Zm.09-11.49-2.84,2.84-2.95,2.95-2.6,2.6-4.44,4.44-3-3,4.44-4.44,2.6-2.6,2.95-2.95,2.84-2.84,2.87-2.87,2.77-2.77.08-.08v5.92Zm-.15-11.43L113,148.71l-2.87,2.87-2.84,2.84-2.95,2.95-2.6,2.6-4.44,4.44-2.88-2.88,4.44-4.44,2.6-2.6,2.95-2.95,2.84-2.84,2.86-2.86,2.77-2.77,3-3,2.74-2.74V143Zm-5.69-6.36L96.94,126.44H103l10.09,10.09Zm5.83-24.73,2.77,2.77.15.15-.15.15-4.15,4.15h-5.84Zm1.64-50,1.39-1.39v2.78ZM100.47,5.76,113.11,18.4l-3,3L94.37,5.76Zm-11.64,0,18.46,18.46-2.86,2.86L83.1,5.76Zm-11.41,0,24.17,24.17-2.95,2.95L71.52,5.76ZM71.6,11.37,67.2,15.78l-2.6,2.6-.08.08V12.68l4.2-4.2ZM59,5.67H65.9L62.46,9.12,59,5.67ZM56.21,8.48l4.2,4.2v5.78l-.08-.08-2.6-2.6-4.41-4.41ZM53.26,5.62,26,32.84,23.1,29.89,47.37,5.62Zm-11.58,0L20.26,27l-2.86-2.86L36,5.62Zm-11.27,0L14.62,21.41l-3-3L24.31,5.62Zm-11.75,0L8.74,15.54,6,12.81l-.19-.19L6,12.43l6.81-6.81Zm-13.13,0H7.59l-.73.73L5.53,7.67Zm.1,176.93,1.24,1.32-1.24.88Zm.19,60.18V241l1.54,1.71Zm6.45-.08L5.83,236,9,232.79l9.7,9.86Zm12.16,0L11.9,230.1l3-3,15.59,15.59Zm11.64,0L17.72,224.28l2.86-2.86,21.23,21.23Zm11.41,0L23.43,218.58l2.95-2.95,27,27Zm5.82-5.45,4.44-4.44,2.6-2.6,0,0v5.78l-4.2,4.2Zm12.58,5.7H59l3.44-3.44,3.44,3.44Zm2.81-2.81-4.2-4.2v-5.78l0,0,2.6,2.6,4.44,4.44Zm3.09,2.81L98.6,215.49l2.95,2.95L77.7,242.9Zm11.58,0,21-21.62,2.86,2.86L89.11,242.9Zm11.27,0,15.37-16,3,3L100.76,242.9Zm24-7-6.42,7h-5.84l9.49-10.11,2.77,2.77.15.15Zm0-104.89-2.73,2.73-7.26-7.26h5.84l4.15,4.15.19.19Zm.65-4.8L118,124.86l-.73-.73.73-.73,1.32-1.32Zm.16-118.37-1.32-1.32-.73-.73h2.05Z"/></svg>