<svg id="Capa_1" data-name="Capa 1" xmlns="http://www.w3.org/2000/svg" viewBox="0 0 42.05 42.04"><defs><style>.cls-1{fill:#ccc;}</style></defs><title>Mesa de trabajo 28</title><g id="HEidry.tif"><path class="cls-1" d="M18.38,0h5.34c.16,0,.32,0,.49.05,1.45,0,2.9,0,4.35.07a26.05,26.05,0,0,1,3.35.23,12.12,12.12,0,0,1,10,11.49c.05,2,.07,4,.11,6,0,.19,0,.38.05.57v5.18c0,.19-.05.38-.05.57,0,1.41,0,2.82-.06,4.23a28.61,28.61,0,0,1-.22,3.48A12.13,12.13,0,0,1,30.2,41.91c-6,.16-12,.18-18,0a14.55,14.55,0,0,1-2.8-.35A12.13,12.13,0,0,1,.13,30.24C0,24.67-.05,19.1.1,13.53a25.14,25.14,0,0,1,.23-3.39A12.12,12.12,0,0,1,11.82.16c2-.05,4-.07,6-.11C18,0,18.21,0,18.38,0ZM21,38.17c3.15-.07,6.35-.06,9.53-.22a8.15,8.15,0,0,0,7.37-7.38c.11-1.77.13-3.56.12-5.34,0-4.56,0-9.12-.14-13.67a8.07,8.07,0,0,0-7.4-7.44C28.78,4,27,4,25.3,4c-4.61,0-9.23,0-13.84.14a8.08,8.08,0,0,0-7.37,7.33C4,13.21,4,15,4,16.72c0,4.61,0,9.23.14,13.84a8,8,0,0,0,7.4,7.39C14.66,38.11,17.83,38.1,21,38.17Z"/><path class="cls-1" d="M10.21,21A10.8,10.8,0,1,1,21,31.83,10.79,10.79,0,0,1,10.21,21ZM21,27.92A6.89,6.89,0,1,0,14.12,21,6.92,6.92,0,0,0,21,27.92Z"/><path class="cls-1" d="M31.87,7.62A2.43,2.43,0,1,1,29.45,10,2.4,2.4,0,0,1,31.87,7.62Z"/></g></svg>