<svg id="Capa_1" data-name="Capa 1" xmlns="http://www.w3.org/2000/svg" xmlns:xlink="http://www.w3.org/1999/xlink" viewBox="0 0 152.6328 304.59107"><defs><style>.cls-1{fill:url(#Degradado_sin_nombre_2);}</style><linearGradient id="Degradado_sin_nombre_2" y1="152.29553" x2="152.6328" y2="152.29553" gradientUnits="userSpaceOnUse"><stop offset="0" stop-color="#cbcbcb"/><stop offset="0.11076" stop-color="#c2c2c2"/><stop offset="0.29137" stop-color="#aaa"/><stop offset="0.51825" stop-color="#828282"/><stop offset="0.53033" stop-color="gray"/><stop offset="0.75598" stop-color="#a2a2a2"/><stop offset="1" stop-color="#cbcbcb"/></linearGradient></defs><title>celosias</title><path class="cls-1" d="M0,0V304.59107H152.6328V0ZM6.948,17.86137l.66093-.34161.66071-.34167.66539-.33726.66517-.3329.66539-.3329.66517-.3329.66963-.32414.66963-.32849.66963-.32414.66963-.31978.6741-.31973.67387-.31537.6741-.31537.6741-.311.67834-.311.6741-.30661.68258-.30661.67856-.30225.67834-.30225.6828-.29784.6828-.29784.6828-.29349.687-.28908.68726-.28908.6828-.28472.69128-.28472.68726-.28467.6915-.276.68726-.28031.6915-.276.69574-.27155.69172-.26719.69574-.27155.696-.26284h24.523l-.82293.29349-.82293.29343-.82271.30225-.81847.29784-.81847.30225-.81847.30661-.81847.30661-.81824.311-.81423.311-.814.31537-.81423.31973-.814.31978-.80954.31973-.81423.32414-.80976.32855-.8053.32849-.80954.3329-.80976.3329-.8053.33726-.8053.33726-.80106.34167-.8053.34167-.80084.346-.80106.35043-.80084.35043-.80106.35038-.79638.35479-.7966.3592-.7966.35914-.7966.36361-.79214.36355-.79214.36791-.79236.368-.79214.37226-.7879.37232-.78767.37673-.7879.37667-.7879.38108-.78321.38108-.78366.38549-.78321.38979-.78366.38985-.779.38985-.779.3942-.77919.39861-.779.39861-.77473.39856-.77473.403-.77451.40738-.77049.40738-.77451.41173-.77049.41173-.76581.41609-.77049.41614-.76581.41609-.76581.42491-.76179.4205-.76134.42926-.76157.42491-.76157.43362Zm0,23.22377.6433-.44679.6433-.44238.64777-.44244.64777-.44238.64777-.438.65223-.43362.64777-.43367.65647-.43362.65223-.42926.65647-.42926.65647-.42485.66093-.42491.65647-.4205.66093-.4205.66517-.41609.66093-.41614.66517-.41173.66986-.41173.66517-.40732.66963-.40738.66963-.40738.6741-.39856.67387-.403.6741-.39856.6741-.3942.67834-.39426.67834-.38985.67834-.38985.67834-.38979.6828-.38108.6828-.38544.68726-.38114.6828-.37667.687-.37667.68726-.37232.6915-.37232.6915-.37232.6915-.36355.6915-.368.6915-.36355.696-.35914.696-.3592.69574-.35479.70043-.35479.7002-.35043.70043-.35038.7002-.34608.70467-.346.70467-.34167.70467-.34161.70467-.33731.70891-.33726.70913-.3329.70891-.3329.70913-.32849.71337-.32414.70891-.32414.71783-.32414.71337-.31973.71359-.31978.71761-.31537.71783-.311.71783-.311.72207-.30661.71783-.30661.72229-.30661.72207-.29784.72653-.30225.72207-.29349.72653-.29784.72653-.28908.72653-.28908.72653-.28913.731-.28472.731-.28467.731-.28037.73077-.2759.73524-.276.731-.276.73524-.26719.73524-.27155.73546-.26719.7397-.26284.73524-.26278.7397-.25843.7397-.25407.73948-.25843.74416-.24966.7397-.24966.74394-.24972.74416-.2409.74394-.24531.74416-.2409.7484-.23649L73.4656,8.444l.7484-.23213.7484-.22778L75.711,7.752l.7484-.22342,25.15066-.211-.22515.211-.8448.22778-.849.23213-.849.23213-.8448.23654-.8448.2409-.84457.2409-.8448.24531-.84457.24531-.84033.24966-.84033.25407-.8448.254-.84033.25843-.83587.25843-.84033.26284-.83609.26719-.83587.26719-.83609.27155-.83587.2716-.83587.276-.83163.28031-.83609.28031-.83141.28472-.82717.28472-.83163.28908-.82717.29349-.83163.29343-.82717.2979-.82293.29784-.82717.3022-.82293.30661-.82271.30661-.82271.30666-.82293.31537-.81847.311-.82293.31978-.81847.31973-.814.32414-.81847.32414-.814.32849-.814.32855-.81423.3329-.814.3329-.80976.33726-.80954.34167-.80976.34161-.80976.346-.8053.35043-.8053.35043-.8053.35038-.8053.35484-.80106.35914-.80084.3592-.80084.36355-.80106.36791-.7966.368-.7966.36791-.7966.37232-.79214.37673-.7966.37667-.79214.38108-.79214.38108-.7879.38544-.7879.38985-.78767.38985-.7879.3942-.78343.3942-.78343.39861-.78343.39861-.779.403-.78343.403-.77473.40738-.779.41173-.77473.41173-.77473.41609-.77473.41614-.77451.4205-.77049.4205-.77027.42491-.76581.42485-.766.42926-.76581.43362-.766.43367-.76157.43362-.76157.44238-.76157.438-.7571.44244-.7571.44674-.75733.4512-.75286.44674-.7571.45556-.7484.45556-.75286.4555-.7484.45991-.7484.46432-.74394.46432-.74416.46427-.74394.47309-.7397.46868-.74416.473-.73524.47744-.7397.47744-.73524.4818-.73524.48185-.731.48621-.731.49056-.73077.48621-.72653.495-.72653.495-.72653.495-.72229.49933-.72207.50374-.72207.50368-.71783.50374-.71783.50809-.71337.50809-.71337.51686-.71359.5125-.70891.51686-.70913.52127-.70891.52121Zm0,25.39191.83141-.70958.83609-.70522.83587-.70081.84033-.69646.8448-.6921.84457-.692.84926-.68769.85328-.68334.85372-.68328.85774-.67457.85774-.67452.8622-.67016.8622-.67022.86666-.6614.87113-.6614.87514-.657.87113-.657.87961-.64828.87983-.64828.88407-.64392.88407-.63946.88853-.63516.88831-.6351.893-.62639.89277-.62634.89723-.622.9017-.62193.9017-.61327.90594-.61322L33.064,46.718l.9104-.60445.9104-.6001.91464-.6.91464-.59133.91932-.59133.92334-.587.92356-.58257.92356-.58257.9278-.5738.93227-.5738.93227-.56939.93227-.565L45.065,39.136l.941-.55627.94119-.55192.94521-.55192.94543-.54751.94543-.54315.94967-.53874.95413-.53439.94967-.53439.9586-.52562.9586-.52562.95837-.52127.96284-.51245.96306-.51691.96708-.50809.9673-.50368.97176-.50374.97154-.495.976-.495.976-.49056.976-.48621.98046-.48185.98046-.47739.9847-.47744.9847-.46873.98917-.46862.9847-.45991.99363-.46.99363-.4555.99341-.4512.99341-.44674.99809-.44679,1.00211-.438,1.00233-.438,1.00233-.42926,1.00233-.42926L80.13583,21.44l1.011-.4205,1.00657-.41614,1.011-.41173,1.0155-.40732,1.0155-.403,1.01527-.39861,1.0155-.39861,1.01974-.38985,1.01974-.38979,1.0242-.38549,1.0242-.37667,1.024-.37673,1.02866-.37232,1.0242-.36791,1.0329-.36355,1.02844-.36355,1.0329-.35479,1.0329-.35043,1.03736-.35043,1.03736-.34167,1.03714-.34161,1.03736-.3329,1.0416-.3329,1.04183-.32849,1.0416-.32414,1.04607-.31978,1.04607-.311,1.04607-.311,1.04584-.311,1.05053-.3022,1.05031-.29784,1.05053-.29349,1.05477-.29343,1.05031-.28472,1.055-.28037,1.059-.28031,1.055-.27155,1.059-.2716L120.52,8.04539l1.05923-.25843,1.06347-.25843,23.258.22342-1.3.254-1.29977.26284-1.29553.26719-1.29977.27155-1.29553.28031-1.29129.28908-1.29553.28913-1.29107.29784-1.28683.30661-1.28661.311-1.28683.31543-1.28683.32408-1.28237.3329-1.28237.3329-1.28237.34167-1.27791.35043-1.27367.35479-1.27813.35914-1.27367.368-1.2692.37232-1.2692.381-1.2692.38549-1.265.38985-1.265.39861-1.26028.403-1.26072.41173-1.26028.41609-1.25626.4205-1.2518.42926-1.2518.43367-1.25158.44238-1.24756.44238-1.24287.45556-1.24287.45556-1.2431.46427-1.23863.47309-1.23863.47739-1.23417.48185-1.22993.48621-1.22993.495-1.22547.49933-1.22547.50809-1.221.5125-1.22123.51686-1.21677.52562-1.21654.53-1.20806.53439-1.21253.54315-1.20784.54751-1.2036.55192-1.19936.56068-1.19914.565-1.1949.56945-1.1949.57816-1.19021.58257-1.1862.587-1.1862.59569-1.18173.6001-1.17727.60445-1.17727.61322-1.173.61763-1.16857.622-1.16857.62634-1.16433.63516-1.15964.63951-1.15563.64387-1.1554.65263-1.15116.65269-1.15094.66575-1.14246.66581-1.14224.67457-1.138.67452-1.13354.68769-1.13354.68769-1.1293.69646-1.12483.70081-1.12037.70522-1.12059.70963-1.11167.71834-1.11167.72269-1.10721.72716-1.10743.73146-1.0985.74023-1.0985.74028-1.09426.749-1.0898.75781-1.08534.75776-1.0811.76211-1.0811.77093-1.07217.77534-1.0724.77964-1.06793.7884-1.06347.78846-1.05923.79723-1.05477.80152-1.055.806-1.04584.81029-1.04607.81476-1.04183.82346-1.03268.82788-1.03312.82782-1.02844.83664-1.0242.841-1.01974.84976-1.0155.84976-1.01527.85411-1.00679.86288-1.00211.86729-.99787.86729-.99809.876-.98894.88047-.98917.88476-.98046.89358-.976.89353-.976.89794-.9673.9067-.9673.9067L8.8563,78.562l-.9586.91547-.94967.92418Zm138.83022,52.76807.1225.67016-.23943-.46639.00714-.79979-.01272-.06973-.12273-.67016-.1312-.66581-.1312-.67016-.13143-.66581-.13567-.66575-.13567-.66581-.14013-.66581-.14437-.66581-.14437-.6614-.14883-.66581-.14883-.6614-.1533-.6614-.15307-.66581-.15753-.6614-.162-.657-.162-.6614-.162-.6614-.17048-.657-.16646-.6614-.1707-.657-.17494-.657-.17963-.657-.17494-.65263-.18386-.657-.18386-.657-.18386-.65263-.1881-.65269-.19257-.65263-.19257-.65263-.197-.64828-.19681-.65269-.20149-.64822-.20127-.64828-.20573-.64828-.20573-.64828-.21-.64828-.21443-.64387-.21443-.64828-.21466-.64387-.21867-.64392-.22336-.63951-.22314-.64387-.2276-.63951-.2276-.63951-.23184-.63951-.23206-.63946-.2363-.63951-.0569-.88047-.0569-.88476-.06136-.88041-.06114-.88482-.06583-.88041-.06984-.88041-.07006-.88482-.07453-.88041-.0743-.88041L136.47769,79l-.08323-.88041-.08323-.88047-.083-.88041-.09193-.88041-.09193-.88041-.09193-.88041-.0964-.87605-.10063-.88041-.10063-.88041-.10063-.87605-.10934-.88041-.10956-.87605-.10934-.876-.1138-.88047-.11826-.876-.118-.87605-.1225-.87605-.12273-.876-.12674-.87605.2932.61322.28874.60886.289.61322.2845.61327.28.61322.2845.61322.2758.61757.2758.61763.27557.61763.27133.61757.26709.622.26687.622.26709.622.26263.622.25817.62634.25817.622.25393.62639.25393.62634.24947.63075.24947.62639.245.63075.245.63075.24076.63075.24076.6351.2363.63075.23206.63516.23184.6351.23206.63951.2276.63516.22314.63951.22314.6351.2189.63951.2189.63951.21443.64387.21443.63951.21019.64392.20573.64387.20573.64392.20573.64387.20127.64828.19681.64387.197.64828.19257.64828.19257.64828.1881.64828.18386.65263.18833.64828.1794.65263-.23229,25.99167ZM102.35648,140.73l-.0087-.98553-.0087-.98994-.0174-.98553-.01763-.98553-.02187-.98994-.02633-.98553-.03057-.98553-.03079-.98994-.03481-.98553-.04373-.98553-.044-.98553-.048-.98994-.0482-.98553-.0569-.98553-.0569-.98553-.0656-.98553-.0656-.98553-.07006-.98118-.07006-.98553-.07877-.98553-.07877-.98559-.08769-.98112-.08747-.98553-.09193-.98118-.09617-.98118-.0964-.98553-.1051-.98112-.1051-.98118-.10934-.98118-.1138-.98112-.118-.98118-.11826-.97682-.127-.98112-.12674-.98118-.13143-.97677-.13567-.97677-.14013-.97677-.13991-.97682-.14883-.97677-.14883-.97677-.1533-.97677-.15753-.97241-.16177-.97677-.162-.97241L98.4,96.5295l-.1707-.97241-.17516-.97236-.1794-.97241-.18386-.96806-.18386-.968-.1881-.97236-.197-.96806-.197-.968-.19681-.96365-.20573-.968-.21019-.96365-.21-.96365-.21443-.96365-.2189-.96359-.22314-.96365-.22336-.95929,6.98976-11.9097.29766,1.09066.289,1.09066.28874,1.09066.28,1.09507.2758,1.095.27133,1.09507.26709,1.09507.26241,1.09942L104.69808,79l.25393,1.09942.245,1.10378.245,1.10383.23653,1.10378.23206,1.10383.22738,1.10378.22336,1.10819.21867,1.10819.21019,1.10819.21019,1.1126.20127,1.10819.20127,1.11254.19257,1.11254.1881,1.1126.18386,1.117.17516,1.11254.17516,1.117.17048,1.117.162,1.117.15753,1.117.15753,1.117.14883,1.12131.14013,1.12131.13991,1.117.13589,1.12136.127,1.12131.12674,1.12572.11826,1.12131.1138,1.12131.10934,1.12572.1051,1.12572.10063,1.12572.09193,1.12131.09193,1.12572.083,1.12572.079,1.13007.0743,1.12572.07006,1.12572.0656,1.12572.0569,1.13007.0569,1.12572.0482,1.13007.04373,1.13007.0395,1.12572.03481,1.13007.03079,1.13007.02633,1.12572.0174,1.13007.0174,1.13013.00893,1.13007.00424,1.12572V137.217l-.00424,1.13007-.01317,1.13013-.01317,1.12572-.02187,1.13007-.02187,1.13007-.03079,1.13007-.03481,1.12572-.04373,1.13007-.044,1.12572-.048,1.13007-.05712,1.12572-.06114,1.13007-.06136,1.12572-.06984,1.13013-.079,1.12566-.07877,1.12572-.083,1.12572-.09193,1.12572-.09193,1.12572-.10063,1.12566-.1051,1.12136-.10956,1.12572-.118,1.12131-.118,1.12572-.12273,1.12131-.1312,1.12131-.13567,1.12136-.14013,1.12131-.14437,1.117-.14883,1.12131-.15307,1.117-.15776,1.117-.16624,1.117-.16646,1.117-.17494,1.117-.1794,1.117-.18386,1.11254-.18833,1.11254-.19681,1.1126-.197,1.11254-.20127,1.10819-.21,1.1126-.21466,1.10819-.21867,1.10819-.22336,1.10378-.2276,1.10819-.23184,1.10383-.23653,1.10378-.245,1.10383-.245,1.09942-.25393,1.10378-.25817,1.09942-.26263,1.09507-.26687,1.09942-.27156,1.09507-.27557,1.095-.28026,1.09507-.28874,1.09066-.289,1.09066-.779-.55627-.77473-.56068-.77027-.56063-.77473-.56068-.76581-.565-.77049-.56945-.76581-.56945-.766-.56939.20573-.968.20573-.96365.20127-.96806.197-.968.19257-.968.1881-.968.18833-.97241.1794-.968.1794-.97241.17516-.97241.17494-.97241.16646-.97236.16624-.97241.15753-.97241.15753-.97677.1533-.97677.14883-.97241.14883-.97677.13991-.97682.14013-.97677.13567-.98118.13143-.97677.1312-.98112.1225-.97682.1225-.98112.1138-.98118.1138-.98118.10934-.98112.10956-.98118.10063-.98118.10063-.98118.09193-.98553.09193-.98112.08747-.98118.08769-.98553.07877-.98553.07877-.98118.0743-.98553.06583-.98553.06984-.98553.06136-.98553.0569-.98559.0569-.98553.0482-.98553.048-.98553.044-.98553.04373-.98994.03481-.98553.03526-.98553.02611-.98553.02633-.98994.02187-.98553.01763-.98994.0174-.98553.0087-.98553.0087-.98989.00446-.98553v-.98994Zm-15.88311,28.7603-.00446-.8717-.0087-.87164-.0087-.86729-.01317-.87164-.0174-.87164-.01763-.87164-.02187-.8717-.02187-.87164-.02633-.86729-.03057-.87164-.03057-.87164-.03079-.87164-.03927-.86729-.035-.87164-.04373-.87164-.04373-.86729-.04373-.87164-.0482-.86729-.05266-.87164-.05244-.86729-.0569-.87164-.0569-.86729-.06136-.87164-.0656-.86729-.0656-.86729-.0656-.86729-.07006-.87164-.07453-.86729-.07854-.86723-.079-.86729-.07877-.86729-.08323-.86729-.08747-.86723-.08747-.86729-.09193-.86288-.09193-.86729-.09617-.86729-.10063-.86288-.10086-.86729-.10063-.86288-.1051-.86729-.10934-.86288-.1138-.86294-.10934-.86729-.11826-.86288-.11826-.86288-.12228-.86288-.12273-.85852-.1225-.86294-.13143-.86288-.1312-.86288-.1312-.85852-.13567-.86288-.14013-.85852-.14013-.85852-.14437-.85852-.14437-.85852-.14883-.85847-.14883-.85852-.15307-.85852-.15776-.85852-.15753-.85411-.15753-.85852-.16624-.85417-.16646-.85411-.16624-.85411-.1707-.85417-.1707-.85411-.17516-.85417-.1794-.85411-.1794-.84976-.18386-.85411-.18386-.84976-.1881-.84976-.1881-.84976,8.622-12.08053.18833.83223.1881.83223.18386.83223.1794.83664.17963.83223.17494.83223.17494.83658.17092.83664.16624.83658.16624.83664.162.83664.15753.83658.15753.841.1533.83664.15307.841.14437.841.14906.83658.13991.841.14013.841.13991.84541.13567.841.13143.841.127.84535.12674.841.12273.84541.1225.84535.118.841.1138.84541.1138.84535.10956.84541.10934.84976.10063.84535.1051.84541.0964.84535.09617.84976.09193.84535.09193.84976.08747.84976.08747.84976.079.84541.07877.8497.07877.84976.0743.84976.07006.84976.07006.84976.0656.84976.06136.84976.06114.85411.0569.84976.05266.84976.05244.85417.0482.84976.0482.8497.04373.85417.03927.84976.035.85411.035.84976.035.85417.02633.85411.02611.84976.02633.85411.02187.84976.0174.85417.01339.85411.01294.85411.01317.84976.00446.85417.00424.85411v1.70387l-.00424.85417-.00446.84976-.01317.85411-.0087.85411-.01763.84976-.0174.85417-.02187.85411-.02187.84976-.02633.85411-.03057.85417-.03057.84976-.035.85411-.0395.84976-.03927.85411-.04373.84976-.04373.85417-.0482.84976-.05266.84976-.05244.85411-.0569.84976-.06136.84976-.06114.84976-.06583.85411-.06984.84976-.07006.84976-.0743.84976-.07453.84976-.07877.84535-.08323.84976-.083.84976-.08769.84976-.09193.84541-.09171.8497-.0964.84541-.10063.84976-.10063.84535-.1051.84541-.1051.84535-.10934.84541-.1138.84535-.1138.84541-.11826.84535-.1225.84541-.1225.84535-.127.841-.127.84541-.1312.841-.13567.841-.13567.841-.14013.84535-.61273-.4818-.61273-.48185-.61273-.48621-.60827-.48615-.60849-.48621-.60849-.48621-.60381-.49062-.604-.49056.05244-.86729.05266-.87164.0482-.87164.048-.86729.04373-.87164.044-.86729.03927-.87164.035-.87164.035-.86729.03057-.87164.03057-.8717.02633-.87164.02633-.86729.02187-.87164.0174-.87164.01763-.87164.01317-.87164.01294-.8717.00893-.86723.0087-.8717.00424-.87164V170.3619ZM94.30771,63.98472,93.79115,65.036l-.5208,1.04689-.525,1.04683-.52973,1.04253-.534,1.04248-.53821,1.03807-.54267,1.03812L90.0536,72.329l-.55159,1.0293-.55583,1.03377-.5603,1.0293-.56007,1.02495-.569,1.025-.57346,1.02059-.57324,1.02054-.58216,1.01624L84.946,81.54048l-.59087,1.01183-.59087,1.01183-.59533,1.00747-.604,1.00306-.604,1.00306-.60827,1.00306-.61273.9943-.6172.9943-.62144.9943-.6259.98989-.6259.98559-.6346.98553-.63906.98112-.63884.98118-.64353.97677-.652.97241-.65223.97241-.65647.968-.66093.96806-.66517.96359-.66986.95929-.67387.95924-.6741.95488-.68258.95488-.6828.94612-.68726.95047-.6915.94176-.696.94171-.7002.93741-.70467.93735-.70913.93294-.70891.92865-.71783.92859-.71783.92418-.72207.91988-.72653.91541-.731.91547-.73077.91547-.7397.9067-.7397.9067-.74416.90229-.7484.90235-.75264.89353-.75733.89358-.7571.89353-.766.88482-.76581.88476-.77027.88482-.77473.87605-.77473.876-.78343.8717-.78343.86723-.7879.86729-.79214.86288-.7966.85852-.7966.85417-.8053.85411-.8053.84976-.8053.84535-.814.841-.814.841-.82293.83664-.82293.83223-.82271.82788-.83163.82782-.83163.81911-.534-.65263-.534-.65263-.5295-.657-.52526-.657-.5295-.6614-.52526-.657-.5208-.6614-.5208-.66581.72653-.7534.72653-.7534.72207-.76211.71783-.76217.71783-.76217.71337-.77093.70913-.77087.70891-.77093.70467-.7797.70043-.77964.69574-.7797.696-.78405.6915-.7884.68726-.79282.687-.79282.67834-.79723.67856-.79717.67834-.80158.66963-.80593.66963-.806.66517-.81029.66093-.81035.66093-.81911.65647-.8147.65223-.82346.64754-.82346.648-.82352.63884-.82782.63906-.83229.63906-.83223.63014-.83658.63036-.841.6259-.841.62144-.841.6172-.84976.617-.84541.60849-.85411.60827-.85411.604-.85417.604-.85852.59511-.86288.59533-.86288.59087-.86288.5864-.8717.58663-.86723.5777-.87605.5777-.87605.57324-.876.569-.88047.569-.88041.5603-.88476.56007-.88923.55606-.88912.55137-.88917.54713-.89358.54713-.89794.53821-.89794.53843-.89794.534-.90229.5295-.9067.52526-.9067.52526-.9067.51634-.91106.51656-.91111.5121-.91541.50764-.91988.50317-.91982.5034-.91982.49469-.92423.49447-.92423.49023-.92859.48577-.92859.48153-.92859.47707-.933.4726-.93735.47283-.93735.4639-.93735.4639-.94176.45966-.94171.455-.94176.451-.95047.44627-.94612.4465-.95053.43757-.95047.43779-.95488.43333-.95488.42887-.95488.42017-.95929.42463-.95924.4157-.96365.41146-.96365.41124-.96359.40276-.96806.40276-.968.39384-.97241.39384-.97241.3896-.97236.38513-.97682.38067-.97677.38089-.97677.372-.97677.36773-.98118.36773-.98553.36327-.98553.35434-.98553.35456-.98553.3501-.98994.34586-.98553.3414-.9943.33694-.98994.3327-.9943.3327-.99865.32377-.9943.32377-.99871.31529-.99871.31507-.99865.30637-1.00306.30637-1.00306.3019-1.00306.29766-1.00742.81847-.3592.81847-.3592.81847-.35479.81847-.35038.82293-.35043.82271-.35043.82271-.34161.82293-.34608.82717-.33726.82717-.33726.82739-.33726.82717-.3329.83163-.32855.83141-.32849.83163-.32414.83163-.32414.83141-.31978-.34988,1.117-.359,1.1126-.36327,1.11254-.36751,1.1126-.37219,1.11254-.372,1.10819-.38089,1.10819-.38513,1.10383-.3896,1.10378L106.615,34.8828l-.3983,1.09942-.40254,1.09942-.407,1.09942-.41146,1.095-.41593,1.09507-.42441,1.09507-.42463,1.09066-.42887,1.0863-.43333,1.08625-.43757,1.0863-.442,1.0863-.4465,1.08189-.4552,1.07748-.4552,1.08195-.45966,1.07313L99.70874,52.294l-.47283,1.07313-.4726,1.06877-.47707,1.06877-.48153,1.06877-.48577,1.06436-.49023,1.06-.49893,1.06436-.49893,1.05565-.5034,1.06-.50764,1.05124ZM70.46753,171.92124v-.73152l-.0087-.73146-.00424-.72711-.01317-.73152-.01317-.72711-.01763-.73146-.0174-.73152-.02187-.72711-.02187-.73152-.02633-.72711-.02611-.73146-.03526-.72711-.03057-.73152-.03927-.72711-.035-.73152-.04373-.72711-.04373-.73146-.044-.72711-.05244-.72711-.0482-.72711-.0569-.73152-.0569-.72711-.0569-.72711-.06136-.72711-.0656-.72711-.0656-.72716-.07006-.72711-.07006-.72711-.0743-.7227-.07877-.72711-.07877-.72716-.08323-.7227-.083-.72711-.08769-.72275-.08747-.72711-.09193-.72275-.09617-.72269-.0964-.72711-.10063-.72275-.10063-.72275-.1051-.7227-.1051-.72275-.10934-.71834-.1138-.72275-.1138-.7227-.11826-.7184-.118-.71834-.1225-.72269-.127-.71834-.127-.7184-.127-.71834-.13567-.71834-.13143-.71834-.13991-.714-.13567-.71834-.14437-.71834-.14459-.714-.14861-.714-.14906-.71393-.15307-.714-.15307-.714-.15776-.714-.15753-.70958-.16177-.71393-.16646-.70963-.16624-.71393-.1707-.70963-.1707-.70958,7.00271-8.30918.18386.76652.18386.76652.1794.77093.1794.76652.17516.77087.1707.76658.1707.77087.1707.77093.16624.77093.162.77529.16177.77087.15776.77093.15307.77534.15753.77523.14883.77093.14883.77529.14437.77529.14459.77529.14437.7797.13567.77529.13567.77529.13567.7797.13143.77529.1312.7797.127.77964.1225.7797.1225.77964.11826.7797.118.7797.1138.77964.10956.7797.10934.78405.10956.7797.10487.784.10063.7797.10063.78405.0964.78405.0964.78405.09193.78405.08747.7797.08747.78405.08323.78846.083.784.07877.78405.079.78405.0743.78405.0743.7884.07006.78405.0656.78846.06583.78405.06114.7884.06136.78405.0569.78846.0569.7884.05244.78405.0482.78846.0482.7884.048.78846.0395.78846.0395.784.03927.78846.035.78846.035.7884.03057.78846.02633.7884.02611.78846.02209.7884.02187.78846.0174.7884.01317.79282.01317.78846.01317.7884.00446.78846.00848.7884v.78846l.00446.7884-.00446.78846-.00424.7884-.0087.79282-.00893.78846-.0087.7884-.0174.78846-.01763.7884-.0174.78846-.02187.7884-.02187.78846-.03079.7884-.02611.78846-.035.7884-.72653-.63075-.731-.6351-.72653-.63516-.72653-.63951-.72207-.63946-.72229-.64392-.71783-.64387-.71761-.64828-.71783-.64828-.71337-.65263-.71359-.65269.01763-.72711.0087-.73146.01317-.73152.00446-.72711.00424-.73146.00446-.73152Zm-16.17631-34.2793.3588.24966.36327.24525.36773.24531.36327.2409.36751.2409.36773.23654.372.23654.372.23654.37219.22778.37643.23213.37643.22337.37621.22778.38089.219.37643.22337.38067.21466.1138.45991.1138.46432.10934.45991.10956.45991.1051.46427.10487.46432.1051.45991.10063.46432-.35434-.17083-.35456-.17083-.35456-.17519-.3501-.17524-.35456-.1796-.34586-.17954-.3501-.184-.34564-.18836-.35032-.18836-.3414-.18836-.34564-.19272-.3414-.19272-.3414-.19713-.3414-.20148-.33694-.20148-.33716-.20148-.33694-.20589-.33247-.21019-.3327-.21025-.3327-.21025L53.51225,140.8l-.32846-.2146-.32823-.219-.32377-.22342-.32823-.219-.324-.22778-.31953-.22772-.31931-.22778-.31953-.23213-.31953-.23219-.31507-.23649-.31529-.23654.2758-.2716.27133-.2759.2758-.276.27133-.276.27133-.276.27133-.276.2758-.276.27133-.276.3501.26284.35456.25843.35456.25843.3588.254.35456.25407Zm-.1138-3.63117.3501-.36355.3501-.36361.34586-.36355.3501-.36791.34586-.36355.34564-.368.34564-.36791.34586-.368.18833.5738.18364.56945.18386.56945.1794.5738.17963.5738.17494.5738.1707.5738.1707.5738.16646.57816.16624.5738-.20573-.08759-.20149-.09636-.20127-.09636-.20127-.09636-.19681-.10077-.20149-.10512-.197-.10512-.19234-.10512-.197-.10948-.19257-.11389-.19257-.11389-.18833-.11389-.1881-.11824-.18833-.12265-.1881-.12265-.18386-.12265-.18386-.127-.1794-.13142-.18386-.13136-.1794-.13142-.17516-.13577-.17494-.13583-.17494-.14013Zm-3.8297,8.38365.52526.36791.5295.368.52526.36791.534.36355.5295.3592.534.3592.534.35914.534.35479.53843.35043.53843.35043.54267.35038.53821.34167.54267.346.54713.34167.54267.33726.55159.33731.54713.3329.55137.33285.55137.32855.55159.32849.55583.32414.10063.587.10063.58692.10063.58257.0964.58692.09193.587.09193.58692.08747.587.08747.58692.08323.59133.07877.58692.07877.587.07453.59133.0743.58692.07006.59133.0656.59133-.48153-.30225-.47707-.3022-.48131-.30666-.47707-.30661-.47283-.311-.47707-.311-.4726-.31537-.4726-.31537-.46836-.31973-.46836-.31978-.46814-.31973-.46412-.32414-.46814-.32849-.45966-.32855-.4639-.32849-.45944-.3329-.45966-.3329-.4552-.33726-.4552-.33726-.4552-.34167-.4552-.34167-.45074-.346-.45074-.346-.4465-.35043-.4465-.35043-.44627-.35038-.44226-.35484-.44181-.35479-.44226-.35914-.43757-.3592-.43757-.36355-.43333-.36355-.43779-.36355-.43333-.368-.42887-.37232-.42887-.37226-.42887-.37232-.42463-.37232-.42463-.38108-.42441-.37673-.42017-.38108-.42017-.381.4726-.44679.46836-.45115.46836-.44679.4639-.45115.46836-.44679.4639-.45115.4639-.45556.4639-.45115.51656.38108.51634.37667.5208.37667.52526.37673Zm-6.10547,5.0635.66093.565.66517.565.66517.56068.66539.56063.66517.55633.66963.55186.66963.55633.6741.54751.67387.55192.67856.54751.6741.54315.68258.54315.67856.54315.6828.53874.68258.53439.68726.53439.687.53439.68726.53.6915.53.6915.52562.6915.52562.696.52121.69574.52127.70043.51686.696.51686.70467.51686.7002.50809.70467.5125.0482.58692.04373.587.03927.59128.0395.587.0395.58692.03057.59133.035.587.02611.59128.02633.587.02633.59133.02187.58692.0174.59133.01763.59133.01294.58692-.65647-.63946-.65647-.63951-.652-.64392-.65223-.64387-.64777-.64387-.64777-.64828-.64777-.65269-.6433-.64822-.64353-.65269-.63884-.657-.63906-.657-.6346-.657-.6346-.6614-.6346-.66145-.63036-.66575-.63036-.6614-.63014-.67016-.6259-.66581-.62144-.67016-.6259-.67457-.6172-.67457-.62144-.67452-.6172-.67893-.61273-.67893-.61273-.67893-.61273-.68334-.60827-.68328-.60827-.68334-.60425-.68769-.60381-.68769-.604-.692-.59957-.6921-.59979-.692-.59511-.69646-.59511-.69646-.59087-.70081.1225-.11389.1225-.11389.1225-.11389.1225-.11389.12273-.11389.1225-.11389.1225-.11389.1225-.11389.65223.56945.66093.56945ZM18.84838,115.71031l.3983-.63075.39384-.62634.39384-.6351.39406-.6308.38937-.6351.3896-.63075.38513-.63951.38067-.63516.38536-.63946.37643-.63951.37621-.64392.37643-.63951.372-.64387.37219-.64828.36773-.64387.36751-.64828.36327-.64828.359-.65263.36327-.64828.35434-.65263.35456-.657.35456-.65263.3501-.657.3501-.657.34586-.657.34564-.6614.3414-.6614.33716-.6614.33694-.6614.33694-.66581.3327-.66581.3327-.66581.32823-.66575.32377-.67016.324-.67016.32377-.67022.31953-.67016.31507-.67452.31529-.67457.31507-.67457.30637-.67452.31061-.67893.30637-.67893.30213-.67893.3019-.67893.29766-.68334.29766-.68334.2932-.68328.2932-.68328.289-.68334.28874-.68769.2845-.68769.2845-.68769.28026-.68769.27557-.692.2758-.68769.2758-.6921.27133-.6964.26687-.6921.26709-.69646.26241-.692.26286-.69646.25817-.70081.25817-.69646.25393-.70087.25371-.69646.24947-.70081.24969-.70522.245-.70081.24054-.70081.241-.70522.24054-.70522.23653-.70522.23184-.70958.23184-.70522.2276-.70958.2276-.70522.22336-.70958.2189-.714.21867-.70958.2189-.70958.21443-.714.21019-.714.21-.714.71783-.50809.71783-.50374.72207-.50368.72229-.49933.72653-.49938.72207-.495.72653-.49492.731-.495.72653-.48621.73077-.49056.73524-.48621.731-.48185.73546-.4818.73948-.47744.73546-.47744.73948-.47744.74416-.47309.7397-.46862.74394-.46873-.245.78846-.24947.78405-.25393.78405-.25393.78405-.25371.78405-.25817.7797-.26263.78405-.26263.77964-.26709.7797-.26687.7797-.27133.77964-.27156.77529-.27557.7797-.28.77529-.28026.77529-.28.77093-.2845.77529-.28874.77093-.289.77087-.2932.77093-.29343.77093-.2932.77093-.3019.76652-.29766.76652-.30637.76652-.30637.76652-.30637.76217-.31061.76217-.31083.76211-.31529.76222-.31931.76211L49.363,74.449l-.324.75781-.32377.75776-.324.75776-.32823.7534-.3327.75776-.33247.7534-.33694.7534-.33716.749-.3414.749-.3414.749-.34564.749-.34586.749-.3501.74464-.35456.74464-.35434.74464-.35456.74464-.359.74023-.3588.74028-.36327.74023-.36773.74028-.36773.73587-.36751.73587-.372.73587-.37643.73587-.37643.73146-.37643.73152-.38067.73146-.38513.72716-.38536.73146-.38513.72711-.39384.72275-.38937.72711-.39406.72275-.3983.72269-.3983.72275-.3983.71834-.407.71834-.40254.71834-.40722.714-.41124.714-.41146.714-.41146.71393-.4157.70963-.42017.70958-.42017.70958-.42463.70958-.42463.70522-.42441.70522-.42887.70081-.43333.70522-.43333.70081-.43333.69646-.43757.70081-.442.69646-.44226.69646-.44181.6921-.4465.692-.4465.6921-.45074.692-.45074.68769-.4552.68769-.45966.68328-.4552.68775-.4639.67893-.45944.68328-.46412.67893-.46814.67893-.5603-.79717-.55583-.79723-.55159-.80158-.55137-.80158-.55137-.80593-.54289-.80158-.54691-.81035-.54289-.80593Zm-.51656-13.49092-.29744.53-.29343.53-.3019.52562-.29766.52562-.30637.52562-.3019.52121-.31083.52562-.30637.51686-.31507.52127-.31083.51686-.31953.51686-.31507.51686-.32377.51686-.31953.5125-.49469-.78405-.49023-.7797-.49-.78405-.486-.7884-.48577-.784-.48131-.78846-.48153-.7884-.48153-.79282.50786-1.22208.50317-1.22208.5034-1.22643.49893-1.22649.49469-1.23084.49447-1.22643.49023-1.23084.49023-1.23084.48577-1.23084.48577-1.23079.48153-1.23525.47707-1.2352.47707-1.2352.4726-1.23525.4726-1.2352.46836-1.23955.46836-1.23961.4639-1.23961.45944-1.244.45966-1.23961.65223-.5738.65647-.5738.65647-.56945.65647-.56939.66093-.565.66093-.565.66093-.56068.66517-.56068.66963-.56063.66517-.55633.66986-.55627.66941-.55186.6741-.54756.6741-.55192.67834-.54751.6741-.54315.67834-.54315.6828-.53874-.1533.58257-.15753.587-.15753.58692-.162.58257-.16624.58257-.16624.58257-.16646.58257-.17048.58257-.17516.57816-.17516.58257-.1794.57821-.1794.57816-.18386.57821-.18386.57816-.1881.5738-.19257.57821-.19257.5738-.19257.5738-.197.5738-.20127.56939-.20149.57386-.20573.56939-.20551.56945-.21019.56939-.21443.56945-.21443.565-.21443.565-.2189.565-.22314.56509-.22336.565-.22314.56063-.2276.56068-.23206.56068-.23184.56063-.2363.55627-.23653.56068-.24054.55627-.24523.55192-.24076.55627-.24947.55192-.24947.55627-.24947.54756-.25371.55192-.25817.54751-.25839.55186-.25817.54756-.26263.54315-.26687.54751-.26709.54315-.27133.54315-.27133.53874-.2758.54315-.27557.53874-.2758.53874-.2845.53439-.28.53444-.289.53874-.2845.53-.2932.53439Zm8.84983,25.19919.5034-.67893.49893-.68334.49893-.68328.49893-.68769.49447-.68334.49469-.68769.49023-.692.49-.6921.486-.692.48577-.6921.48131-.6964.48153-.69646.48153-.69646.47707-.70081.4726-.70087.4726-.70522.47283-.70081.46836-.70522.4639-.70958.4639-.70522.4639-.70958.45944-.70958.45966-.714.4552-.714.4552-.714.45074-.71834.4465-.71393.45074-.71834.442-.72275.4465-.72275.442-.7227.43779-.72275.43757-.72275.43333-.72711.43333-.72711.42887-.73152.42887-.73146.42463-.73152.42441-.73146.42463-.73587.4157-.73587.42017-.73587.41593-.73587.41124-.74028.41146-.74023.407-.74028.407-.74464.40722-.74464.40254-.74458.3983-.74464.3983-.749.39384-.749.39406-.749.3896-.749.38937-.75334.3896-.7534.38067-.7534.38536-.75781.38067-.75776.37643-.75776.37643-.75776.372-.75781.372-.76217.36773-.76211.36751-.76658.36327-.76211.36327-.76652.359-.76658L56.974,77.283l.359-.77093.3501-.76652.3501-.77093.3501-.77087.34586-.77529.34586-.77534.3414-.77087.33694-.7797.33694-.77529.33694-.77529.3327-.7797.32823-.77964.32823-.78405.324-.7797.32377-.78405.31953-.78405.31953-.78405.31507-.78405.31507-.7884.31083-.78411.31083-.7884.30637-.79282.30637-.78846.3019-.7884.29766-.79282.29766-.79282.29766-.79282.2932-.79717.289-.79282.28874-.79723.2845-.79717.2845-.79723.28-.80158.28-.79717.2758-.80158.2758-.80158.27133-.80158.26687-.80158.26709-.80593.26709-.80158.26241-.80593.25839-.806.25817-.80593.25371-.81035.77049-.43362.77027-.42926.77473-.42926.77027-.42485.779-.42491.77473-.4205.77473-.41609.779-.42055.77919-.41173.78343-.41173.78343-.41173.78343-.40732.78343-.403.78343-.403.78767-.403.7879-.3942-.2363.89353-.24523.89794-.245.89358-.24947.89353-.25393.89358-.25371.89358-.26263.88912-.26263.88917-.26687.88923-.27156.88917-.27133.88476-.28.88917-.28026.88482-.28428.88041-.289.88482-.2932.88041-.29766.88041-.29766.87605-.3019.88041-.30637.87605-.31083.87164-.31061.876-.31529.8717-.32377.87164-.324.87164-.32377.86729-.3327.86723-.33247.86729-.33716.86288-.3414.86294-.34564.86288-.34586.85852-.3501.85852-.35456.85852-.3588.85852-.36327.85411-.36327.85411-.36773.84976-.372.84976-.37643.84976-.37643.84976-.38513.84541-.38513.84535-.3896.841-.38937.841-.39406.841-.40254.83664-.3983.83658-.40722.83664-.407.83223-.4157.83223-.4157.82788-.41593.82782-.42441.82788-.42463.82346-.42887.82346-.42909.82346-.43757.81911-.43757.81911-.44226.8147-.44627.8147-.4465.81035-.45074.81035-.4552.81035-.45944.80593-.45966.80593-.4639.806-.46836.80158-.4726.79717-.47283.79717-.47707.79723-.48131.79282-.48153.79282-.49023.79282-.49023.78405-.49.7884-.49893.78411-.49893.78405-.5034.77964-.5034.77529-.50764.7797-.5121.77087-.51656.77534-.51634.76652-.5208.77087-.52526.76217-.52526.76658-.534.76211-.5295.75776-.53843.75781-.53821.7534-.54267.7534-.54713.75334-.54713.749-.55159.74464-.55583.74464-.55583.74022-.56007.74028-.56476.74022-.56454.73146-.569.73593-.57324.72711-.57346.73146-.5777.72711-.58216.72275-.58194.71834-.58663.72275-.59087.714-.59087.71393-.59511.714-.59979.70958-.59957.70522-.604.70522-.60827.70081-.60827.70081-.61273.69646-.61273.69646-.6172.6921-.62166.692-.62144.68769-.4465-.58692-.44181-.587-.43779-.58692-.442-.587-.43757-.59133-.43779-.59128-.43333-.59133-.43757-.59133Zm79.8317,77.3234.40276-1.22649.39384-1.22643.3896-1.22643.38067-1.23525.37643-1.23084.372-1.2352.36327-1.23961.359-1.2352.3501-1.244.34586-1.23961.3414-1.244.33247-1.24832.324-1.24837.32377-1.24837.31507-1.24832.30637-1.25273.30213-1.25278.29766-1.25708.28874-1.25714.28026-1.25708.28-1.26149.26687-1.25714.26709-1.26585.25817-1.26149.24947-1.2659.24523-1.26585.24054-1.2659.23206-1.27026.2276-1.26585.21867-1.27461.21466-1.27026.21-1.27026.197-1.27467.19681-1.27461.18833-1.279.18386-1.27461.17494-1.279.16646-1.27467.16624-1.28338.1533-1.279.15307-1.279.14437-1.28338.13567-1.279.13143-1.28338.1225-1.28338.118-1.28779.1138-1.28338.1051-1.28343.10063-1.28779.09193-1.28773.08769-1.28343.07877-1.28773.0743-1.28779.06583-1.28779.06114-1.28779.05266-1.28779.048-1.29214.0395-1.28779.03481-1.28773.03079-1.28779.02187-1.29214.0174-1.28779.00893-1.29214V123.599l-.00446-1.28779-.0087-1.29214-.01763-1.28779-.02187-1.29214-.03057-1.28779-.035-1.28779-.04373-1.29214-.0482-1.28773-.05244-1.28779-.06136-1.28779-.07006-1.28779-.0743-1.28779-.07877-1.28773-.08747-1.28338-.0964-1.28784-.0964-1.28773-.10934-1.28338-.10934-1.28343-.12273-1.28338-.1225-1.28338-.13567-1.28343-.13567-1.28338-.14437-1.28338-.15307-1.279-.15776-1.279-.16177-1.279-.1707-1.279-.17963-1.279-.1794-1.27461-.19257-1.27461-.19257-1.27467-.20573-1.27461-.20573-1.27467-.21443-1.27026-.22314-1.27026-.2276-1.2702-.23206-1.2659-.24076-1.27026-.245-1.26585-.25393-1.26149-.25817-1.2659-.26687-1.26149-.27133-1.26149-.2758-1.25708-.2845-1.25714-.2932-1.25708-.2932-1.25714-.30659-1.25273-.30614-1.25273-.31529-1.24837-.32377-1.24832-.32823-1.24837-.3327-1.244-.3414-1.244-.34586-1.244.40276-.82782.3983-.83223.3983-.82788.39384-.83223.39406-.83664.38937-.83223.3896-.83658.38513-.83664.38089-.841.38067-.83658.37643-.84105.37643-.84094.372-.84541.372-.841.36773-.84541.36327-.84535.36327-.84976.36327-.84535.3588-.84976.35456-.84976.3501-.84976.40276,1.35785.39384,1.35785.38513,1.36226.38067,1.36662.37219,1.36221.36327,1.371.3588,1.371.35032,1.371.34118,1.371.33716,1.37538.32823,1.37979.32377,1.37974.31507,1.37974.30659,1.37979.3019,1.38409.2932,1.38415.2845,1.38856.28026,1.3885.27133,1.3885.26687,1.39291.25817,1.39291.24947,1.39291.24076,1.39291.2363,1.39727.23206,1.39727.2189,1.39727.21443,1.40168.20551,1.40162.20149,1.40168.19257,1.40168.18386,1.40162.1794,1.40609.1707,1.406.162,1.406.15753,1.406.14883,1.41044.13991,1.41039.13567,1.406.127,1.41044.11826,1.41044.1138,1.4148.10063,1.41039.10063,1.4148.08747,1.41044.08323,1.4148.07877,1.4148.0656,1.4148.06136,1.4148.05244,1.4148.0482,1.4148.03927,1.4148.03079,1.41485.02187,1.41474.0174,1.41485.00893,1.41915.00424,1.4148-.00424,1.4148-.01316,1.41921-.02187,1.4148-.02633,1.4148-.035,1.4148-.03927,1.4148-.05266,1.4148-.05244,1.4148-.0656,1.4148-.07006,1.4148-.07877,1.4148-.08747,1.4148-.09193,1.41044-.10086,1.4148-.10934,1.41039-.1138,1.41044-.1225,1.41044-.13143,1.41039-.13567,1.41044-.14437,1.41044-.14883,1.406-.162,1.406-.16624,1.406-.1707,1.406-.18386,1.406-.1881,1.40168-.19257,1.40168-.20573,1.40162-.20573,1.40168-.2189,1.39727-.22314,1.39727-.23184,1.39732-.241,1.39727-.245,1.39291-.25393,1.39286-.25817,1.39291-.27133,1.39291-.27133,1.3885-.2845,1.38415-.28874,1.3885-.29766,1.38415-.30213,1.38415-.31061,1.37979-.31953,1.37974-.324,1.37974-.33247,1.37538-.33716,1.37538-.34564,1.371-.35456,1.371-.36327,1.371-.36773,1.36662-.372,1.36662-.38513,1.36221-.38513,1.36226-.3983,1.35785-.40276,1.35785-.41124,1.3535-.41593,1.35344-.42441,1.3535-.42909,1.34909-.43757,1.34473-.4465,1.34473-.45074,1.34032-.45966,1.34032-.61273.63516-.61273.63075-.61273.63075-.62144.62634-.617.62639-.62166.622-.6259.622-.6259.61763-.38513-.25848-.38513-.26278-.3896-.26284-.38513-.26278-.38513-.26719-.38513-.26278-.38513-.26725-.38513-.26278Zm20.67587-20.4686.17494-.67016.17516-.67457.1707-.67457.1707-.67452.1707-.67457.1707-.67452.16624-.67457.22314.07883.22336.07883.22314.07889.22336.07006.22738.07447.2276.06571.22336.06565.23184.06571.2276.06136.2276.05694.23206.05694.2276.05694.23184.05253.23206.04818.23206.04383.23184.04818.23184.03941.23206.03941.2363.03506.23206.035.2363.03506-.48153.63075-.48577.63075-.48577.63075-.48577.63075-.49023.62639-.49023.62634-.49447.622-.49469.622-.49893.622-.083-.02194-.08323-.03065-.08323-.03065-.07877-.03065-.07877-.03506-.07877-.03506-.07877-.03941-.07877-.04377-.07453-.04383-.0743-.04383-.07006-.04818-.0743-.05253-.07006-.05259-.06583-.05253-.0656-.05694-.0656-.0613-.06114-.06136-.06136-.0613-.06136-.06571-.0569-.06571-.05244-.06571-.0569-.07006-.0482-.07012-.048-.07447-.0482-.07006-.04373-.07883-.04373-.07447Zm5.58467-10.05693-.49893-.10512-.49469-.10512-.49893-.10071-.49893-.09642-.49893-.09636-.49893-.09195.21-.95053.21019-.95047.20573-.95053.20127-.95047.20127-.95488.197-.95047.19257-.95488.18833-.95488.35434.10948.35032.10512.3501.10077.35456.10071.3501.10077.35456.09195.35434.09642.359.08759.35456.08759.35434.08759.3588.08324.359.07883.35456.07883.3588.07447.36327.07447.3588.07006.359.06571.36327.06571.359.0613.36327.06136.3588.05694.36327.05253.36327.05259.36327.04818.36327.04818.36327.04377.36773.04383.36327.03941.36327.03506.36751.035-.48577.72275-.48577.72275-.48577.71834-.49023.71834-.49469.714-.49447.71393-.49893.714-.49893.70958-.5034.70963-.50764.70958-.49023-.13142-.49023-.127-.49469-.127-.49-.12265-.49469-.1183-.49447-.11824-.49469-.11389-.49893-.10948Zm-.42887-13.2369.15753-.88917.15753-.88917.15307-.88917.1533-.88917.14883-.89358.14437-.88917.14437-.89353.14013-.89358.14013-.89353.13567-.89358.1312-.89358.1312-.89353.12719-.89353.12674-.89358.12273-.89794.118-.89353.11826-.89794.1138-.89358.11358-.89794.10956-.89794.1051-.89794.1138.4818.10934.48185.1051.48621.1051.4818.10063.48621.10063.48185.09617.48615.0964.48621.09193.48621.09193.48621.08747.48621.08323.48621.083.49056.079.48621.07854.49056.07453.48621.0743.49062.07006.49056.06583.49056.0656.49062.06114.49056.06136.49056.0569.49062.0569.49056.05244.49056.05266.495.04373.49062.0482.49492.04373.49062.03927.49492.0395.49062.035.495.03057.49492.03057.49062.02633.49492.02633.495.02611.495.01763.495.0174.49056.01763.495-.66963-.10512-.66539-.10512-.66963-.10512-.66963-.10512-.66963-.10077-.66517-.10071-.66963-.10071Zm9.50608,1.52428-.39808-.06565-.3983-.07012-.00446-.57816-.00424-.57821-.00446-.57816-.00893-.57821-.01294-.57816-.01317-.57821-.01763-.57816-.02187-.5738-.02187-.57821-.02633-.57816-.02611-.57821-.03057-.57816-.03079-.5738-.03481-.57821-.0395-.57821-.0395-.57375-.04373-.57821-.04373-.57821-.0482-.5738-.0482-.5738-.05244-.57816-.0569-.5738-.0569-.5738-.06136-.57821-.06114-.5738-.0656-.5738-.07006-.5738-.07006-.5738-.07006-.5738-.07877-.5738-.07877-.56945-.07877-.5738-.08323-.5738-.083-.56939-.09193-.56945-.08747-.5738-.09193-.56945-.0964-.56939-.10063-.56945-.10063-.56939-.10063-.56945-.1051-.56945-.10934-.565-.10956-.56939-.1138-.565-.118-.56509-.11826-.56939-.11826-.565-.1225-.56068-.127-.565-.12674-.565-.13143-.56068-.1312-.565-.13589-.56068-.13991-.56063-.14013-.56068-.14437-.56068-.14437-.56063-.14883-.55633-.14883-.56063.06136-.88041.05668-.88482.05712-.88482.05244-.88476.05244-.88482.0482-.88041.0482-.88476.03927-.88482.04373-.88482.035-.88476.035-.88482.035-.88476.03057-.88482.02633-.88482.02633-.88917.02187-.88476.02187-.88482.0174-.88476.01317-.88482.01316-.88482.00893-.88476.1881.60881.18386.60886.1794.60886.1794.61322.1794.60886.1707.61322.17516.61322.16624.61327.16646.61757.16624.61322.16177.61763.162.61322.1533.61763.15753.61757.1533.61763.14861.622.14883.61763.14437.622.14013.61757.14013.622.14013.622.13567.622.1312.622.1312.62634.127.622.1225.62639.12719.622.118.62634.118.62639.1138.62634.1138.62639.10956.62639.10934.63075.1051.62634.1051.62639.10063.63075.0964.63075.09617.62634.09193.63075.09193.63075.08747.63075.08747.63075.08323.63075.07877.63075.07877.63516.07453.63075.0743.6351.07006.63075.0656.63516.0656.63075.06583.6351.06114.63516.0569.63075.0569.6351.05266.63516.048.6351.0482.63516.0482.6351.04373.63516.0395.6351.03927.63516.035.6351.03057.63951.03079.6351.02611.63516.02633.6351.02611.63951.01763.63516.01763.6351.0174.63951.01317.6351.0087.63516.0087.63951.00446.6351.00424.63516v.63951l-.00424.6351-.00446.63951-.00424.63516-.01317.6351-.01317.63951-.01317.63516-.01763.6351-.0174.63951-.02633.6351-.39384-.07442-.3983-.07012-.3983-.07006-.3983-.07012-.39808-.07442Zm3.32206-92.36494-.2276-.6351-.23206-.63516-.23184-.6351-.2363-.63516-.24076-.63069-.24076-.63075-.245-.6308-.24523-.63075-.245-.63075-.25393-.62634-.24947-.63075-.25817-.62639-.25393-.622-.26263-.62634-.26263-.622-.26241-.62193-.26709-.622-.27133-.622-.27133-.61757-.27133-.622-.2758-.61327-.28-.61757-.28026-.61763-.28428-.61322-.28472-.61322-.28874-.61322-.28874-.60886-.29343-.60886-.2932-.60886-.29766-.60881-.29744-.60451-.30213-.60881-.30637-.60445-.30637-.6001-.30637-.60445-.31083-.6001-.31507-.6001-.31507-.59569-.31507-.6001-.31953-.59574-.324-.59569-.32377-.59133-.324-.59133-.32823-.59128-.33247-.59133-.3327-.59133-.3327-.587-.33694-.58257-.3414-.58692-.3414-.58257-.34586-.58257-.34564-.58257-.34586-.57821-.3501-.57816-.35456-.57821-.20573-.86288-.20551-.86288-.21019-.85852-.21019-.86288-.21443-.85852-.21443-.86288-.21867-.85852-.22336-.85852-.22314-.85852-.2276-.85417-.2276-.85847-.23206-.85417-.23184-.85411-.23653-.85411-.24054-.85417-.24076-.85411-.24076-.85411-.24947-.84982-.24947-.84976-.24947-.85411-.25393-.84535.33716-.10953.33694-.10948.33716-.10953.33247-.10512.33694-.10948.33716-.10512.33694-.10953.33716-.10512.36327.48185.3588.4818.3588.48621.35456.48185.35456.48615.35434.49062.35032.49056.34564.49062.34586.49056.34564.495.3414.49492.33716.49938.33694.49933.33694.49933.3327.49933.3327.50374.32823.50374.32823.50374.32377.50809.31953.50809.324.5125.31507.50809.31953.51245.31061.5125.31083.51686.31083.51686.30637.51686.30637.51686.3019.52127.30213.52121.29744.52562.29766.52127.2932.52562.2932.52562.289.53.289.52562.2845.53.2845.53439.28.53.2758.53439.28.53439.27133.5388.27133.53433.27133.5388.26709.53874.26263.54315.26241.5388.26286.5431.25817.54315.25371.54751.25393.54756.24947.5431.24947.55192.24947.54756.24076.55186.245.54756.2363.55627.24076.55192.23206.55186.23184.55633.23206.55627.2276.55627V70.77839Zm-.0964-37.34544-.32377-.5738-.32823-.56945-.32823-.56939-.3327-.565-.33247-.56945-.3327-.56063-.3414-.56509L142.9201,28.26l-.34564-.565-.3414-.55633-.3501-.56063-.34586-.55633-.35434-.55627-.35032-.55192-.35434-.55186-.359-.55192-.3588-.55192-.36327-.54751-.36349-.54751-.36751-.54315-.36751-.54756-.36773-.54315-.37219-.53874-.37621-.53874-.37643-.5388-.38089-.53874-.38067-.53439-.38067-.53439-.38536-.53439-.38513-.53-.38937-.53.86644-.24525.86666-.24531.86644-.24531.86666-.23649.87113-.23654.8709-.23654.8709-.23213.87113-.22778.8709-.22778.8709-.22337.87537-.219.23206.3942.22738.39861.23206.39856.2276.403.2276.39856.2276.39861.2276.403.2276.39861V33.36288ZM6.948,114.31745l.59087,1.00306.59511,1.00306.59957.99865.604.99871.60849.9943.61273.9943.61273.98989.62144.98994.62144.98553.6259.98553.63036.98118.63014.97677.63906.97677.63906.97682.6433.968.65223.97241.64754.968.65669.96365.66071.95924.66093.95929.66539.95924.66963.95488.6741.95047.67834.95053.67834.94612.68726.94612.687.94171.6915.93735.6915.93741.70043.93294.7002.933.70467.92859.70913.92423.71315.92423.71783.91982.71783.91982.72207.91106.72653.91547.731.9067.731.9067.73524.9067.7397.90229.74394.89794.7484.89358.74862.89353.75264.88917.75733.88917.7571.88482.766.88041.76581.88041.77027.87605.77473.87164.77473.86729.779.86729.78343.86288.7879.86288.7879.85852.79214.85411.7966.85417.80084.84976.80084.84535.80552.841.80954.841.80976.83664.814.83223.81847.83223.82293.82788.82271.82346.82739.82346.83141.8147.83609.81911.83587.81035.84033.81035.84033.80593.8448.80158.849.79717.8535.79723.8535.79282.85774.7884.8622.78846.8622.77964.86666.78405.8709.77529.8709.77093.87559.77093.87961.76652.87961.76217.88429.76211.88831.75781.88853.7534.893.749.897.74464.89746.74464.90147.74022.9017.73587.90594.73152.9104.73146.91464.72716.91486.7227.91464.71834.9191.714.92356.714.9278.70958.928.70522.93227.70081.932.69646.93673.69646.93651.692.94119.68769.94521.68334.94543.67893.94989.67893.95413.67457.95391.67016.95413.66575.9586.66145.96284.657.96284.657.9673.65269.9673.64822-.6172.55633-.617.55627-.62166.55627-.62144.55192-.6259.55186-.6259.54756-.6259.54751-.63014.54315-.6346.54315-.6346.53874-.6346.5388-.6346.53433-.63906.53439-.64353.53-.63884.53-.64777.53-.8622-.61763-.858-.61322-.8622-.622-.8535-.622-.85328-.62639-.8535-.63075-.849-.6351-.84926-.63516-.8448-.6351-.84457-.64392-.84033-.64387-.83609-.64828-.83587-.64828-.83587-.65263-.83163-.657-.82717-.6614-.82717-.6614-.82717-.66581-.81847-.66575-.82293-.67457-.814-.67457-.81847-.67452-.80976-.67893-.80976-.68334-.80954-.68769-.80552-.68769-.80084-.692-.80084-.6921-.7966-.69646-.7966-.70081-.79214-.70081-.79214-.70522L64.85229,202l-.78343-.70963-.78343-.71393-.78343-.71834-.77473-.7184-.77473-.72269-.77473-.72275-.77027-.73146-.76581-.72716-.766-.73587-.76157-.73587-.76157-.73581-.7571-.74028-.75286-.74464-.75286-.749-.7484-.749-.7484-.749-.73948-.7534-.74416-.75776-.7397-.76217-.73524-.76217-.731-.76217-.73077-.77087-.72653-.77093-.72653-.77093-.72229-.77529-.71783-.77964-.71761-.7797-.71359-.77964-.70891-.78846-.70913-.7884-.70467-.78846-.70467-.79282-.7002-.79717-.696-.79723-.69574-.80158-.69172-.80158-.687-.80593-.687-.80593-.6828-.81035-.67856-.8147-.67387-.81476-.67856-.81905-.66941-.81911-.66986-.81911-.66517-.82782-.66093-.82346-.66093-.83229-.65647-.83223-.65223-.83223-.64754-.83658-.64777-.83664-.64777-.841-.63906-.84541-.63906-.84535-.6346-.84535-.6346-.84976-.63014-.85417-.62612-.85411-.62568-.85852-.6172-.85852-.6172-.85852-.617-.86288-.60849-.86729-.60827-.86723-.60827-.8717-.59979-.87164-.59957-.87164-.59511-.87605-.59533-.88041-.5864-.88041-.58663-.88041-.5864-.88482-.5777-.88917-.57792-.88917-.57324-.88917-.57324-.89353-.56476-.89358-.56454-.89794-.56454-.89794-.55583-.90229-.55606-.90235-.55137-.90229L9.11,134.3962l-.54691-.91106-.54289-.9067L7.482,131.663l-.534-.91547Zm0,34.01211.48131.81035.48577.80593.486.81035.49447.80158.49023.80593.49893.80158.49893.79723.49893.79717.50764.79717.5034.79282.5121.79282.5121.79282.51634.78846.51656.7884.5208.78405.52526.78411.52526.77964.5295.78405.52973.77529.53821.77529.534.77528.54267.77534.53843.77087.54713.76652.54713.76658.55137.76652.55137.76217.55606.76211.56007.75781.5603.75776.56454.75776.56454.7534.569.749.569.75334.57324.74464.57792.74464.5777.74464.58216.74028.5864.74023.5864.74028.58663.73587.59511.73146.59087.73152.59979.73146.59957.72711.59957.72275.604.72275.60827.72269.60849.71834.61273.7184.61273.71393.617.714.62144.70958.62166.70522.62144.70958.6259.70087.63014.70516.63036.69646.6346.70087.63906.692.6346.69646.6433.68769.64353.68769.6433.68769.64777.68328.652.68334.65223.67893.65647.67893.65669.67457.66071.67452.66093.67016.66517.66581.66539.66581.66963.66575.6741.66145.66941.657.67856.657.67834.65263.67856.65269.68258.65263.68726.64387.687.64828.68726.63951.6915.63951.696.63951.69574.63516.696.63075.7002.63069.70467.6308.70467.62634.70467.622.70913.622.71337.61763.71337.61322.71337.61322.71783.61327.72229.60881.71761.60445.72653.60451.72653.6001.72653.6.731.59574.731.59133.73524.59128.73524.587.7397.58692.7397.58257.7397.57821.74394.57816.7484.57821.74862.5738.7484.56939.75264.56509.75286.565.7571.565.75733.56063.76134.55633.76179.55186.76134.55192.766.55192-.6433.473-.64353.47309-.6433.47309-.64777.46868-.652.46427-.648.46868-.652.45991-.65223.46432-.65647.45556-.65647.45991-.65647.45115-.66093.45556-.66093.44674-.66093.4512-.66071.44674-.66539.44244-.66517.44238-.66963.438-.66986.438-.66517-.55633L69.089,238.592l-.66093-.56068-.66093-.565-.66093-.56063-.65647-.56945-.65647-.565-.65647-.5738-.65223-.56945-.65223-.5738-.652-.5738-.64777-.57816-.6433-.58257-.64777-.57821-.6433-.58257-.63906-.58692-.64353-.587-.6346-.58692-.63906-.59133-.6346-.59133-.63014-.59569-.6346-.59574-.63036-.59569-.6259-.6001-.62568-.60445-.62612-.6001-.62144-.60445-.62144-.60886-.6172-.60881-.62144-.60886-.61273-.61322-.617-.61322-.60849-.61763-.61273-.61763-.60849-.61757-.60827-.622-.604-.622-.604-.622-.59957-.62634-.59957-.63075-.59957-.62639-.59533-.63075-.59511-.6351-.59087-.63516-.59087-.6351-.5864-.63951-.59087-.63951-.58216-.63951-.58216-.64387-.58216-.64392-.58216-.64822-.5777-.64828-.57324-.64828-.57346-.65263-.57324-.65269-.569-.657-.569-.657-.569-.657-.5603-.6614-.56454-.66145-.56007-.6614-.5603-.66575-.55583-.66581-.55583-.66581-.55159-.67016-.55137-.67016-.54713-.67457-.55159-.67452-.54267-.67457-.54267-.67893-.54267-.67893-.53843-.67893-.53821-.68328-.534-.68334-.534-.68334-.534-.68763-.52973-.68769-.525-.68769-.52526-.6921-.52526-.692-.5208-.69646-.5208-.69646-.51656-.69646-.51634-.69646-.5121-.70081-.5121-.70081-.50764-.70522-.50764-.70522-.50786-.70522-.5034-.70522-.49893-.70958-.50317-.70958-.49469-.714-.49447-.714-.49447-.71393-.49045-.714-.49-.71834-.486-.71834-.48577-.72275-.48131-.71834-.48153-.72275-.48153-.72711-.47707-.72711-.4726-.72711-.4726-.72711-.46836-.73152-.46836-.73146L8.7907,169.534l-.46412-.73146-.45944-.73587-.45966-.73587-.45944-.74028-.1437-17.43166Zm1.68491,100.188-.56454-.70522-.5603-.70958-.56007-.70522V225.16675l.39384.59133.39384.59133.3983.59133.3983.58692.40276.587.40254.58257.40276.58257.407.58257.41146.58257.41146.57816.4157.57816.4157.57386.41593.5738.42017.5738.42017.5738.42441.56939.42887.565.42463.56945.43333.565.42887.565.43779.56068.43311.56068.43779.56063.442.55633.442.55627.442.55627.4465.55192.45074.55186.4465.54756.4552.54751.45074.54751.45966.54315.455.54315.45966.54315.4639.53874.4639.5388.46412.53874.46814.53439.46836.53.47283.53433.4726.53.4726.52562.47707.52562.48153.52562.48153.52562.48131.52121.48131.51691.49045.51686.48577.51686.49023.51686.49.51245.49469.50815.49447.51245.49893.50374.49893.50809.49916.50374.50317.49933.5034.49933.50764.49938.50764.49933.5121.495.50786.49056-.75286.3329-.75286.3329-.7571.32849-.7571.32414-.75733.32414-.7571.32414-.76157.31537-.76157.31973-.76157.311-.76157.311-.766.311-.76134.30661-.766.30225-.77027.3022-.766.29784-.77027.29784-.77027.29349-.60827-.66575-.604-.66581-.60849-.67016L19.715,261.588l-.59979-.67457-.59957-.67452-.59511-.67457-.59533-.67893-.59533-.67893-.59087-.68334-.59087-.67893-.5864-.68769-.5864-.68328-.58216-.6921-.58216-.68769-.5777-.692-.5777-.692-.5777-.69646-.57346-.69646L10.3357,250.62l-.57346-.70081-.56454-.70087Zm.3983,20.31088-.25817.08324-.26263.08324-.25817.08324-.26263.07883-.25817.08324-.26263.07883-.25839.08318-.26241.07889v-3.00919l.25817.29784.25817.29349.25839.29784.26241.29349.26263.29343.25817.29349.26286.29349Zm25.64334-28.47993-.54713-.565-.54713-.565-.54267-.56945-.54267-.5738-.53821-.56945-.53843-.57816-.53843-.5738-.534-.57821-.534-.57816-.5295-.58257-.5295-.58257-.52526-.58692-.52526-.58257-.52526-.59133-.5208-.587-.5208-.59133-.51634-.59569-.51656-.59133-.5121-.6001-.5121-.59569-.5121-.6001-.50764-.6001-.50764-.60445-.5034-.60445-.5034-.60445-.49893-.60886-.49893-.60886-.49893-.60886L19.553,223.257l-.49023-.61322-.49023-.61757-.49023-.61763-.48577-.61763-.48577-.61757-.48577-.622-.48153-.62639-.47707-.622-.47707-.62639-.47707-.62634-.4726-.63075-.46836-.63075-.46836-.63516-.46836-.63075-.4639-.6351-.4639-.63951-.45944-.63516-.45966-.63946-.45966-.64392-.4552-.63951-.45074-.64387-.45074-.64828-.45074-.64387-.4465-.64828-.442-.65263-.442-.64828-.442-.65269V186.59482l.49893.73593.5034.73146.50317.73152.5034.72711.50764.73146.5121.72711.5121.72275.5121.72275.51634.72269.521.72275.5208.71834.5208.71834.52526.71834.525.714.52526.714.534.714.5295.70958.534.70958.53843.70522.53843.70522.53821.70522.54267.70516.54267.70087.54713.70081.54713.69646.55159.69646.55137.69646.55583.692.55583.6921.55583.692.5603.68769.56454.68769.5603.68769.569.68328.56454.68334.569.67893.57346.68328.57324.67457.57324.67893.57792.67457.58194.67016.57792.67452.5864.67022.58194.66575.58663.66581.59087.66581.59087.6614.59087.6614.59511.6614.59533.657.59533.657.59957.65263.604.65263.60381.65269.604.64828.60849.64822.60827.64828.60827.64387.61273.64392.61273.63951.6172.63951.6172.6351.62144.63951.62144.63075.62166.63516.6259.63075.6259.62634.63014.62639.63014.62634.63036.622.6346.622.6346.622.63906.61757.63906.61322.6433.61763.63906.60886.64777.61322.6433.60886.64777.60445.64777.60886.652.6001.65223.60445.65647.6001.65669.59569.65647.59569.66093.59569.66071.59133.66093.59133.66517.587.66539.58692-.6915.403-.6915.39861-.696.39861-.696.39856-.69574.38985-.70043.39426-.7002.38979-.70043.38549-.70444.38544-.70043.38108-.70467.38108-.70891.37667-.70467.37673-.70913.37232-.70891.37226-.71359.368-.70891.368-.59087-.52562-.58216-.52562-.5864-.53-.58216-.52562-.5777-.53439-.58216-.53439-.57324-.53439-.5777-.53874-.57346-.5388-.57324-.53874-.569-.54315-.569-.5431-.56454-.54756-.56476-.54751-.56454-.55192-.5603-.55192-.56007-.55186-.5603-.55633-.55583-.55627-.55159-.55627-.55561-.56068-.55159-.565ZM8.29177,287.98739l-1.34373.3022v-8.15587l1.3743-.40738,1.36984-.41614,1.37006-.4205,1.36537-.42921,1.36114-.43367,1.36136-.44238,1.36114-.4512,1.35667-.45991,1.35243-.46427,1.35243-.47309,1.35243-.47744,1.34351-.48615,1.34373-.495,1.34373-.49938,1.33927-.50809,1.33481-.51686,1.335-.52121,1.33057-.53,1.3261-.53439,1.3261-.54315,1.32186-.55186,1.3174-.55633,1.3174-.565,1.31294-.5738,1.3087-.57816,1.3087-.58257,1.30424-.59574,1.29977-.6,1.29553-.60451,1.29553-.61322,1.29107-.622,1.28683-.62639,1.28237-.6351,1.28237-.63951,1.27813-.64828,1.27367-.65263,1.2692-.6614,1.265-.66581,1.26474-.67893,1.2605-.67893,1.256-.68769,1.2518-.69646,1.24734-.70081,1.24734-.70958,1.23886-.714,1.23841-.71834,1.23439-.73152,1.22993-.73152,1.22547-.74023,1.221-.749,1.21677-.7534,1.2123-.76217,1.20806-.76652,1.20806-.77528,1.19914-.7797,1.19914-.78405,1.19066-.79282,1.19021-.79717,1.18173-.806,1.18173-.8147,1.17749-.8147,1.16857-.82346,1.16857-.83223,1.16411-.83664,1.15563-.841,1.1554-.84976,1.1467-.85411,1.1467-.86294,1.138-.86723,1.13778-.8717,1.1293-.88041,1.12483-.88476,1.12059-.89358,1.11591-.89353,1.11167-.9067,1.10743-.9067,1.103-.91547,1.0985-.91982,1.0898-.92859,1.08534-.933,1.08556-.93735,1.07664-.94612,1.0724-.94612,1.06793-.95929,1.059-.95924,1.05923-.968,1.05031-.97241,1.04607-.97677,1.04183-.98553,1.03714-.98559,1.02866-.9943,1.024-1.003,1.0242-1.00312,1.011-1.01177,1.011-1.01624,1.00233-1.02054.99787-1.02936.99363-1.03371.98917-1.03812.98024-1.04248.976-1.04689.97176-1.05124.96708-1.06.9586-1.06436.95413-1.06877.94543-1.07313.94543-1.07754.93651-1.0863.928-1.08625.9278-1.09507.9191-1.09942.9104-1.10383.91018-1.10819.9017-1.11254.89277-1.117.893-1.12572.88407-1.12566.87537-1.13448.8709-1.13448.86666-1.14325v20.06563l-.893,1.05124-.897,1.04689-.9017,1.04248-.9104,1.03371-.91464,1.03371-.9191,1.025-.928,1.02054-.9278,1.01624-.93673,1.01183-.94521,1.00742-.94543.99871-.95413.99865-.95837.98994-.96306.98553-.96708.98118-.97622.97236-.98024.97241-.98493.96365-.98894.95924-.99363.95053-1.00233.95047-1.00657.94176-1.00679.93735-1.01974.933-1.01974.92418-1.0242.92423-1.02844.91547-1.03736.9067-1.0416.9067-1.04607.89794-1.04607.88917-1.05477.88917-1.06347.88041-1.06369.876-1.06793.8717-1.07217.86288-1.0811.85852-1.0811.84976-1.0898.84535-1.0898.841-1.0985.83664-1.103.82782-1.103.82352-1.11167.8147-1.11613.81035-1.11613.80593-1.12461.79717-1.1293.79287-1.1293.78405-1.13778.784-1.138.77093-1.1467.76652-1.1467.76217-1.15563.75776-1.1554.749-1.15987.74023-1.16411.73587-1.16857.73152-1.173.72275-1.17727.71834-1.18173.70958-1.18173.70522-1.19044.70081-1.19066.6921-1.19468.68328-1.19914.67893-1.2036.67016-1.20806.66581-1.20806.6614-1.21677.65263-1.21677.64392-1.221.63951-1.221.6351-1.22993.62639-1.22993.61757-1.23417.61327-1.23863.60445-1.23863.6001-1.24734.59569-1.2431.58257-1.2518.58257-1.256.56945-1.256.565-1.25626.56063-1.26474.55192-1.265.54315-1.2692.53874-1.26943.53-1.27344.52562-1.27813.51686L45.1,276.55943l-1.28237.50374-1.28237.495-1.29107.49056-1.29107.48185-1.29129.47744-1.29553.46868-1.29977.45991-1.3.4555-1.30424.44679-1.30424.44244-1.3087.43362-1.3087.42491-1.31294.42044-1.31294.41179-1.3174.403-1.32186.39861-1.32186.38979-1.32164.38549-1.3261.37667-1.32633.368-1.33034.36355-1.33079.35479-1.33481.346-1.33481.34167-1.335.33285-1.33927.32414-1.33927.31978Zm69.39313-1.17831-.858.3942-.8622.38549-.85774.38544-.8622.38108-.8622.37673-.86666.37667-.86666.37232-.86666.36791-.8709.368-.86644.36355-.87113.3592-.87514.35479-.87113.35479-.87537.35038-.87537.34608-.87961.346-.87983.34161-.87961.33731-.87983.33726-.87961.32849-.88407.32855-.88429.32849-.88831.32414-.88429.31537-.88831.31978-.88853.311-.88853.311-.89277.30661-.893.3022-.89277.30225-.893.29784-.897.29349-.89746.29349H10.61128l1.2692-.30225,1.26943-.3022,1.26474-.311,1.265-.31537,1.265-.32414,1.26474-.32849,1.2605-.3329,1.256-.33726,1.26072-.34608,1.25158-.35038,1.256-.3592,1.2518-.3592,1.2518-.36791,1.2518-.37673,1.24734-.381,1.2431-.38549,1.24287-.38985,1.2431-.3942,1.24287-.403,1.23863-.41173,1.23417-.41173,1.23439-.4205,1.23417-.42491,1.22993-.42926,1.22971-.438,1.22569-.44238,1.22547-.44674,1.221-.45556,1.22123-.45991,1.221-.46432,1.21253-.46868,1.21654-.47744,1.21253-.4818,1.20784-.48621,1.20806-.49056,1.2036-.49938,1.2036-.50368,1.2036-.50815,1.1949-.51686,1.19914-.51686,1.19044-.52562,1.19044-.53439,1.19066-.53439,1.186-.5431,1.18173-.54756,1.18173-.55186,1.18173-.56068,1.173-.56068,1.17281-.56945,1.173-.5738,1.16857-.58251,1.16433-.58262,1.16411-.59133,1.15987-.59569,1.1554-.6001,1.15563-.60881,1.15094-.61322,1.15116-.61763,1.1467-.622,1.14224-.62639,1.138-.63075,1.138-.63951,1.13354-.64387,1.13354-.64828,1.1293-.65263,1.12483-.6614,1.12037-.66145,1.12037-.67016,1.11613-.67452,1.11613-.67893,1.10721-.68334,1.10743-.692,1.10274-.6921,1.10319-.70081,1.094-.70522,1.09426-.70958,1.094-.714,1.08556-.72275,1.08534-.7227,1.0811-.73152,1.07664-.73587,1.07664-.74023,1.06793-.74464,1.06793-.749,1.06369-.75334,1.05923-.75781,1.059-.76652,1.05477-.76652,1.04607-.77529,1.05053-.7797,1.0416-.78405,1.03736-.7884,1.03714-.79282,1.0329-.79723,1.0242-.80158,1.02866-.80593,1.01974-.8147,1.0155-.8147L125.527,241.68l1.00657-.82346,1.00679-.83223,1.00211-.83658.99787-.83664.99363-.84541.99363-.8497.9847-.85417.98024-.85852.98046-.85847.976-.86729.9673-.8717.9673-.876.96284-.88041.9586-.88482.95413-.88917.94967-.89358.94989-.89794.94075-.90229.93673-.9067.93673-.91106.9278-.91547v18.48l-.7002.63516-.70043.62634-.70467.62639-.70891.62634-.70467.622-.71337.61763-.71337.61763-.71359.61322-.71761.61322-.71783.60886-.72229.60881-.72653.60451-.72653.6-.72653.6001-.731.59569-.73077.59133-.73524.59133-.73546.59133-.73948.587-.7397.58251-.74416.57821-.74394.57821-.74416.57816-.7484.5738-.75264.56945-.75286.565-.75286.565-.7571.565-.76157.55627-.75733.55633-.76581.55627-.76157.55192-.766.54751-.77027.54751-.77027.54315-.77027.53874-.77473.5388-.779.53439-.77473.53433-.779.53-.78366.52562-.78321.52562-.7879.52127-.78343.51686-.79214.51686-.7879.5125-.79214.51245-.7966.50374-.7966.50809-.7966.49933-.80084.49933-.80106.495-.8053.495-.8053.49056-.8053.48621-.80976.48621-.80954.4818-.80976.4775-.81423.47744-.814.473-.81847.46868-.81847.46868-.81847.46432-.82271.46427-.82293.45556-.82717.45991-.82717.45115-.82717.4512-.82717.44674-.83163.44238-.83587.44244-.83163.438-.83609.43362-.84033.43367-.83587.42921-.8448.42926-.84033.4205-.84457.4205-.8448.4205-.84457.41173-.84926.41173-.849.40738-.849.40738-.8535.403-.8535.39861-.85774.39856Zm57.47963-3.56111-.687.44244-.6828.438-.68726.43362-.687.43362-.687.43367-.69172.42926-.6915.42485-.6915.42491-.69574.42485-.69172.4205-.7002.41609-.696.41614-.7002.41614-.7002.41173-.70043.40732-.70467.40738-.70467.40738-.70467.403-.70891.39861-.70467.39856-.71337.39861-.70913.3942-.71337.38985-.70891.38985-.71783.38985-.71337.38544-.71783.38108-.71783.38108-.71783.37667-.72207.37673-.72229.37232-.72207.37232-.72207.37232-.72653.36355-.72676.36791-.72653.3592-.72653.36355H79.39167l.73992-.29784.74394-.30225.73524-.30225.7397-.30661.73524-.30661.7397-.311.73546-.311.73077-.31537.73524-.31537.731-.31978.731-.32408.73077-.31978.731-.32849.72653-.32849.72653-.32855.72653-.3329.72653-.33726.72207-.33726.72229-.33731.72207-.34161.72207-.34608.71783-.346.72229-.346.71761-.35043.71359-.35479.71761-.35479.71359-.35479.71337-.3592.71337-.36355.70913-.36355.70891-.36791.70913-.368.70891-.36791.70467-.37232.70467-.37673.70467-.37667.70467-.38108.7002-.38108.70043-.38108.7002-.38985.696-.38544.7002-.38985.696-.3942.6915-.3942.696-.39861.6915-.39861.6915-.39856.687-.403.68726-.40732.68726-.40738.687-.40738.6828-.41173.687-.41609.67834-.41614.6828-.41609.67856-.4205.67834-.42491.67834-.4205.6741-.42926.67387-.42926.6741-.42921.66963-.43367.66963-.43362.66963-.438.66539-.438.66517-.44238.66517-.44238.66539-.44679.66093-.44679.66093-.44679.65647-.45115.66093-.45556.65647-.4555.652-.45556.65223-.45991.65223-.46432.652-.46427.64777-.46432.64777-.46868.64777-.46868.6433-.473.64353-.47309.6433-.47309.63906-.4818.63884-.47744.6346-.4818.63906-.48185.6346-.48621.63036-.49056.63014-.48621.63036-.495.63014-.49056.6259-.495.6259-.49933.62166-.49933.62144-.50374.62144-.49933V275.92l-.66093.473-.66093.473-.66517.46873-.66093.46868-.66963.46427-.66517.46432-.66963.45991-.66986.45991-.67387.45556-.6741.45556-.67387.4555-.6741.44679-.67834.45115-.67834.44679-.6828.44238Zm.86666,14.82259.71337-.41614.71337-.41609.70913-.41614.71337-.4205.70467-.42485.70913-.42491.70467-.42485.70467-.42926.70467-.43367.7002-.43362.7002-.438.7002-.438.696-.438.696-.44244.23943,6.11418Z"/></svg>