<svg id="Capa_1" data-name="Capa 1" xmlns="http://www.w3.org/2000/svg" xmlns:xlink="http://www.w3.org/1999/xlink" viewBox="0 0 124.001 247.454"><defs><style>.cls-1{fill:url(#Degradado_sin_nombre_8);}</style><linearGradient id="Degradado_sin_nombre_8" y1="123.727" x2="124.001" y2="123.727" gradientUnits="userSpaceOnUse"><stop offset="0" stop-color="#e6e5e4"/><stop offset="0.08831" stop-color="#dddcdb"/><stop offset="0.23239" stop-color="#c5c4c3"/><stop offset="0.41319" stop-color="#9d9d9d"/><stop offset="0.53033" stop-color="gray"/><stop offset="0.70037" stop-color="#a2a2a1"/><stop offset="1" stop-color="#e6e5e4"/></linearGradient></defs><title>celosias</title><path class="cls-1" d="M0,0V247.454H124.001V0ZM104.2043,15.2984s14.83288,7.60314,6.734,23.54506c0,0-2.06627.86889-2.04385-1.33449,0,0,7.00825-12.05871-5.65466-19.74193C103.23974,17.767,101.05148,15.415,104.2043,15.2984ZM75.85568,10.14646a54.12531,54.12531,0,0,0,9.96468,7.227C90.42805,13.78359,98.19465,5.06964,98.19465,5.06964h3.28092A101.27659,101.27659,0,0,1,88.33036,18.58275a36.57344,36.57344,0,0,0,9.8105,2.929c1.29086.89443,0,1.48955,0,1.48955-3.9993-.17641-11.10853-3.33446-11.10853-3.33446-10.75,9.66346-27.89323,16.06046-27.89323,16.06046C56.67572,35.26217,58.3,33.391,58.3,33.391c14.23168-5.09111,26.24022-14.97282,26.24022-14.97282-4.93358-2.28259-9.642-7.14116-9.642-7.14116A.8157.8157,0,0,1,75.85568,10.14646ZM95.68824,90.57392c-1.73549,1.61-2.45979-.63325-2.45979-.63325,5.51922-28.12473-18.6923-36.88286-18.6923-36.88286-1.08135-1.76116,1.18686-2.093,1.18686-2.093C103.79984,63.53414,95.68824,90.57392,95.68824,90.57392Zm18.31581,23.08s1.06853.76921-.15419,1.49191A37.86617,37.86617,0,0,1,89.51723,97.82241s-.06812-1.567,1.37333-.63325C90.89056,97.18916,98.815,110.2944,114.004,113.65389ZM81.12667,102.41265s1.3518,2-1.1797,2.254A19.55789,19.55789,0,0,1,68.444,88.32352s-7.78816,2.42215-14.43248,1.56706c0,0-.95739-1.14131.17929-1.46331A40.60851,40.60851,0,0,0,68.401,86.74218s-.10758-8.583,6.2463-13.84227c0,0,1.6566-.31483,1.85382,1.25579,0,0-5.63315,6.10006-5.51482,11.67058a43.85747,43.85747,0,0,0,12.58225-8.13935s1.4056-.49374,1.06854.991c0,0-6.17459,6.30041-13.69024,8.79408C70.94684,87.472,70.997,98.11579,81.12667,102.41265Zm-36.63878-.31127c3.43962,17.9769,18.02895,21.75263,18.02895,21.75263s2.94386,2.84789-.796,4.94444c0,0-20.18028-4.32874-22.60431-28.79,0,0-2.52793-17.12662,13.61853-29.25514,0,0,3.74707-1.00177,2.91877,3.81029C55.65379,74.56355,41.04828,84.12447,44.48789,102.10138ZM59.68413,55.7733a43.57388,43.57388,0,0,1,10.96151,6.075s.57371,1.38461-.84623,1.1914c0,0-6.76512-4.78478-11.546-6.17159,0,0-18.161,11.90917-31.8662,41.58758,0,0-1.91357,1.45377-2.28768-.966,0,0,9.79257-24.47529,30.94467-41.61622a39.432,39.432,0,0,0-17.86042-1.0268s-.99682-.37923-.104-1.41321,13.5991-1.00142,19.71423,1.356A103.148,103.148,0,0,1,95.48744,35.7666s2.30919.64757.545,2.45075C96.03247,38.21735,73.87375,44.16853,59.68413,55.7733ZM17.27236,90.84225c-.9789.805-1.41277-.05008-1.41277-.05008.04661-1.53484-1.16177-10.29671-1.16177-10.29671-5.63315,7.63132-4.58254,17.53448-4.58254,17.53448-2.47055,4.05717-4.89808.18961-4.89808.18961-1.27293-15.64543,8.26864-24.35007,8.26864-24.35007A124.62505,124.62505,0,0,0,6.22838,51.09005.9108.9108,0,0,1,7.469,50.35662c3.27375,5.47037,7.29333,22.207,7.29333,22.207a35.14821,35.14821,0,0,1,12.27388-7.37013c4.55385,1.059,1.95063,4.56519,1.95063,4.56519C19.71423,73.23623,15.96358,78.771,15.96358,78.771,16.903,82.38807,17.27236,90.84225,17.27236,90.84225ZM55.18048,15.65617c6.31444-4.97307,12.70417-.254,12.70417-.254s1.34105,1.864-1.3052,2.11444c0,0-5.314-3.42032-10.07584.31125a8.65543,8.65543,0,0,0-3.49607,8.61876s-.355,2.54021-2.31637,1.152A11.97072,11.97072,0,0,1,55.18048,15.65617ZM5.081,21.52722A59.91516,59.91516,0,0,0,35.19732,35.36949s5.81126-15.19026,1.12233-30.29985h2.63908s4.57178,12.94069-1.18328,30.63615a54.3138,54.3138,0,0,0,12.81174,0,.76637.76637,0,1,1,.31913,1.49907s-4.64126.82244-13.67948-.02861c0,0-5.026,13.89712-17.89627,23.05134,0,0-2.458.46921-1.61357-1.8962,0,0,10.34766-6.30874,16.91738-21.50935,0,0-16.3038-1.95867-29.55341-13.302Zm0,110.50192s8.45869,1.06974,14.97392-.1932c0,0-1.69024-10.71234,3.03351-18.79384,0,0,.95944-.42942,1.255.76206,0,0-4.41561,9.4428-2.7861,17.767,0,0,12.64309-2.48308,21.92661-9.87813a1.38077,1.38077,0,0,1,1.8323,1.635,51.3096,51.3096,0,0,1-23.29635,10.73679,31.57616,31.57616,0,0,0,14.23168,19.51654s15.82732-29.019,44.4879-9.6098c0,0,.57013,2.12875-1.59205,1.8962,0,0-22.43579-17.84931-40.66195,8.91929a39.16982,39.16982,0,0,0,8.00689,2.62248s1.44863.91948-.23666,1.51338a35.05935,35.05935,0,0,1-8.41925-2.75844A26.30787,26.30787,0,0,0,35.667,164.862s-1.3303,1.8318-2.48848-.00358a29.5633,29.5633,0,0,1,2.41318-9.896s-12.385-6.82275-15.07791-20.6328a47.65478,47.65478,0,0,1-15.43289.2576Zm97.144,38.41771a1.38786,1.38786,0,0,1-.26893,2.43644c-30.10562-.08586-41.9026-23.7812-41.9026-23.7812.42311-2.186,2.16218-1.28083,2.16218-1.28083,8.60929,13.70631,18.99351,17.767,18.99351,17.767-1.36974-2.30048,1.31236-3.65287,1.31236-3.65287,27.48087-5.38091,31.40723-30.82218,31.40723-30.82218,3.10881-3.474,4.92676.45079,4.92676.45079-6.78763,32.09045-34.98935,35.2407-34.98935,35.2407C90.26253,170.02862,102.225,170.44684,102.225,170.44684Zm-6.6228,8.90856a1.38193,1.38193,0,0,1,2.39167-.75848,31.02583,31.02583,0,0,1-12.35635,33.7917,1.30017,1.30017,0,0,1-1.40919-1.81033C101.368,197.45517,95.60218,179.35541,95.60218,179.35541Zm-11.40256-.83719a50.74411,50.74411,0,0,1-24.04218-.08587s-.84264-.78352.57013-1.29872c0,0,9.2583,2.8765,22.86965,0C83.59722,177.13363,85.24665,177.05493,84.19963,178.51822ZM97.352,142.55483a62.88977,62.88977,0,0,1-18.70306-18.18921c.28084-1.47,1.4307-.64041,1.4307-.64041,6.98228,10.76878,18.15444,17.52732,18.15444,17.52732C98.792,142.556,97.352,142.55483,97.352,142.55483ZM26.12189,183.60218a12.13987,12.13987,0,0,1-3.21638-.88012s-9.96827,7.3916-13.08425,10.91209c0,0-1.30161.27191-1.02551-.966,0,0,8.08577-7.871,12.39221-10.60083,0,0-13.909-5.2056-16.06039-20.99772,0,0,2.1586-3.67791,4.95186-.46869a22.17128,22.17128,0,0,0,16.505,17.91014s10.74278-6.29324,14.32849-7.16978c0,0,.96814-.15384.73507,1.2379,0,0-10.83243,4.81921-13.63645,6.93365C28.01156,179.51282,29.618,182.78645,26.12189,183.60218ZM5.081,210.20622c24.02807-17.21994,53.50954-19.14447,53.50954-19.14447-7.70928-7.81019-13.02688-10.218-13.02688-10.218-.29762-1.2844.89284-1.152.89284-1.152,5.83036,2.64395,14.08108,11.20189,14.08108,11.20189,9.60612-1.14488,23.49.63683,23.49.63683,1.52034,1.74594-.47331,2.47222-.47331,2.47222-8.7061-1.50622-20.89034-.712-20.89034-.712,8.77794,11.37786,10.20851,17.29477,10.20851,17.29477-.91622,1.40757-1.506.254-1.506.254a59.64564,59.64564,0,0,0-10.59936-17.42C27.84276,195.802,5.081,213.28306,5.081,213.28306Zm29.906,32.17814H17.47675C10.4631,238.9569,5.081,231.47942,5.081,231.47942V221.31865c8.55241,18.46618,24.35,20.82515,29.906,21.06571h1.996A18.85079,18.85079,0,0,1,34.987,242.38436Zm36.65551-5.982c-11.797-6.4757-25.36889-6.43992-25.36889-6.43992,2.6355,1.61,7.63756,6.66532,7.63756,6.66532-.05379,1.40605-1.23348.94094-1.23348.94094-.104-.551-8.89614-7.60984-8.89614-7.60984-2.22314-.18246-10.17624,1.09479-10.17624,1.09479-2.1084-1.05543-.48766-2.45075-.48766-2.45075a49.95211,49.95211,0,0,1,7.38656-1.02323A103.2463,103.2463,0,0,0,14.70141,214.571a.82743.82743,0,0,1,.46614-1.36312C30.07334,217.7445,42.946,227.44731,42.946,227.44731a61.12482,61.12482,0,0,1,30.206,6.91218C74.05207,236.50256,71.64247,236.40238,71.64247,236.40238Zm40.3464-8.80123a33.90028,33.90028,0,0,0-19.29829,14.7832H90.91207s6.83437-12.32888,20.65728-16.40034C112.36717,225.857,113.36934,226.96337,111.98887,227.60116Zm6.93118-26.75429C84.9096,243.608,44.99706,212.979,44.99706,212.979c-1.57327-2.10278,1.298-2.11444,1.298-2.11444,46.52294,28.415,72.625-14.658,72.625-14.658Zm0-30.50019a62.6774,62.6774,0,0,0-13.39979,23.94578c-1.44145,1.07332-1.62792-.415-1.62792-.415,5.46462-17.23036,15.02771-25.78116,15.02771-25.78116Zm0-50.95052c-37.92188,5.75334-65.90175-17.63466-65.90175-17.63466-.43729-1.68376,1.50241-1.77813,1.50241-1.77813,32.47908,23.58849,64.39934,16.85471,64.39934,16.85471Zm-15.65879-17.85648c-1.9076-1.30587.43029-2.46147.43029-2.46147,10.57067,1.16993,12.72568-8.9515,12.72568-8.9515,1.63867-1.771,2.50283.44722,2.50283.44722C115.38813,103.99042,103.26126,101.53967,103.26126,101.53967ZM118.92005,51.0328s-8.019,4.66286-11.191,12.11421a38.28755,38.28755,0,0,0,6.1997,2.18956s1.10725.65942-.15061,1.46687a25.70267,25.70267,0,0,1-6.68376-2.27186s-3.86993,8.55667-1.4809,17.78492c0,0-.02989,1.47943-1.50958.551a31.44631,31.44631,0,0,1,1.6315-19.03s-9.03081-3.83216-13.9771-15.3771c0,0,.28164-1.38082,1.35181-.58674,0,0,4.25925,10.16543,13.26,14.57569,0,0,4.15945-9.17689,12.55-13.16964Z"/></svg>