<svg id="Capa_1" data-name="Capa 1" xmlns="http://www.w3.org/2000/svg" viewBox="0 0 39.62 39.62"><defs><style>.cls-1{fill:none;stroke:#666;stroke-miterlimit:10;stroke-width:0.5px;}.cls-2{fill:#c7a535;}</style></defs><title>Mesa de trabajo 30</title><circle class="cls-1" cx="19.81" cy="19.81" r="19.56"/><g id="udwcfR"><path class="cls-2" d="M8.34,32.12a4.42,4.42,0,0,1-.65-.32,1.4,1.4,0,0,1-.59-1.21q0-3.88,0-7.76A1.49,1.49,0,0,1,9.4,21.56a1.37,1.37,0,0,1,.63,1,3,3,0,0,1,0,.4q0,3,0,5.94c0,.08,0,.16,0,.26H29.62c0-.08,0-.16,0-.25q0-3,0-6a1.52,1.52,0,0,1,.48-1.22,1.38,1.38,0,0,1,1.44-.29,1.35,1.35,0,0,1,1,1.16,3.3,3.3,0,0,1,0,.46q0,3.74,0,7.49a1.41,1.41,0,0,1-.32,1,3.78,3.78,0,0,1-.59.45,1.49,1.49,0,0,1-.28.12Z"/><path class="cls-2" d="M20.06,6a3,3,0,0,1,1.36,1l3.14,3.14c.75.76,1.51,1.51,2.26,2.28A1.36,1.36,0,0,1,27,14a1.47,1.47,0,0,1-1.63.76,1.59,1.59,0,0,1-.79-.44l-3.17-3.17L21.28,11v.3q0,6.07,0,12.14a1.62,1.62,0,0,1-.3,1A1.44,1.44,0,0,1,19.5,25a1.39,1.39,0,0,1-1.08-1.12,2.39,2.39,0,0,1,0-.48q0-6,0-12.08V11l-.63.61c-.95.93-1.89,1.86-2.84,2.79a1.39,1.39,0,0,1-1.59.29,1.48,1.48,0,0,1-.86-1.45,1.28,1.28,0,0,1,.36-.8l2.05-2.07C16,9.24,17.12,8.12,18.24,7c.31-.31.66-.59,1-.87A1.41,1.41,0,0,1,19.6,6Z"/></g></svg>